<?xml version="1.0" encoding="iso-8859-1"?>
<!-- Generator: Adobe Illustrator 16.0.0, SVG Export Plug-In . SVG Version: 6.00 Build 0)  -->
<!DOCTYPE svg PUBLIC "-//W3C//DTD SVG 1.1//EN" "http://www.w3.org/Graphics/SVG/1.1/DTD/svg11.dtd">
<svg version="1.1" id="Capa_1" xmlns="http://www.w3.org/2000/svg" xmlns:xlink="http://www.w3.org/1999/xlink" x="0px" y="0px"
	 width="46.711px" height="46.712px" viewBox="0 0 46.711 46.712" style="enable-background:new 0 0 46.711 46.712;"
	 xml:space="preserve">
<g>
	<path d="M26.215,31.52c0,0.633-1.281,1.146-2.859,1.146c-1.58,0-2.859-0.513-2.859-1.146c0-0.635,1.279-1.145,2.859-1.145
		C24.934,30.376,26.215,30.885,26.215,31.52z M16.62,24.542c-1.231,0-2.234,1.003-2.234,2.233c0,1.232,1.003,2.236,2.234,2.236
		c1.233,0,2.236-1.004,2.236-2.236C18.856,25.544,17.853,24.542,16.62,24.542z M30.092,24.542c-1.233,0-2.236,1.003-2.236,2.233
		c0,1.232,1.003,2.236,2.236,2.236c1.23,0,2.234-1.004,2.234-2.236C32.327,25.544,31.325,24.542,30.092,24.542z M44.711,30.255
		c0,2.925-1.838,5.407-4.362,6.241c-3.24,6.207-9.748,10.216-16.964,10.216c-7.211,0-13.709-3.998-16.949-10.19
		C3.873,35.711,2,33.209,2,30.255c0-2.122,0.967-4.012,2.461-5.208c0.139-1.283,0.367-2.708,0.707-4.023l-2.008-1.49
		c-1.111-0.826-1.723-1.938-1.722-3.131c0-1.192,0.61-2.303,1.722-3.129L19.383,1.229C20.449,0.436,21.861,0,23.356,0
		c1.494,0,2.904,0.437,3.973,1.229l16.219,12.045c1.113,0.824,1.727,1.937,1.727,3.129c0.001,1.191-0.611,2.305-1.727,3.131
		l-1.953,1.449c0.354,1.354,0.588,2.814,0.727,4.121C43.775,26.303,44.711,28.166,44.711,30.255z M23.356,4.743
		c-0.88,0-1.283,1.285-1.449,2.831l-0.4,0.337l-2.48,2.08l-1.034,0.867c-0.081,0.067-0.128,0.168-0.128,0.273
		s0.047,0.206,0.128,0.274l0.575,0.481c0.107,0.092,0.262,0.109,0.391,0.047l2.869-1.437c0.024,0.47,0.073,0.938,0.133,1.399
		c0.035,0.277,0.073,0.551,0.117,0.819c0.084,0.515,0.18,1.013,0.278,1.466l-1.933,1.619c-0.08,0.068-0.127,0.17-0.127,0.274
		c0,0.106,0.047,0.207,0.127,0.274l0.304,0.252c0.108,0.092,0.262,0.11,0.392,0.047l1.646-0.823
		c0.138,0.491,0.238,0.807,0.252,0.849c0.048,0.147,0.188,0.247,0.341,0.247c0.154,0,0.293-0.1,0.341-0.247
		c0.015-0.042,0.114-0.357,0.253-0.849l1.646,0.823c0.052,0.025,0.105,0.037,0.158,0.037c0.084,0,0.166-0.027,0.23-0.084
		l0.303-0.252c0.082-0.067,0.129-0.168,0.129-0.274c0-0.104-0.047-0.206-0.129-0.274l-1.932-1.619
		c0.1-0.453,0.193-0.951,0.277-1.466c0.045-0.27,0.082-0.542,0.119-0.819c0.059-0.463,0.105-0.931,0.131-1.399l2.871,1.437
		c0.051,0.024,0.104,0.037,0.16,0.037c0.082,0,0.164-0.029,0.229-0.084l0.574-0.481c0.082-0.068,0.129-0.169,0.129-0.274
		s-0.047-0.206-0.129-0.273l-1.033-0.867l-2.479-2.079l-0.402-0.338C24.639,6.028,24.236,4.743,23.356,4.743z M28.81,41.199
		l-1.285-3.898h-8.34l-1.284,3.9c1.165-0.653,3.172-1.086,5.455-1.086S27.645,40.547,28.81,41.199z M40.711,30.255
		c0-1.401-0.988-2.538-2.222-2.541c-0.34,0.581-0.729,1.142-1.171,1.673c0.413-1.416,0.639-2.871,0.639-4.316
		c0-0.659-0.063-1.287-0.15-1.898H8.905c-0.089,0.611-0.15,1.239-0.15,1.898c0,1.445,0.226,2.9,0.638,4.316
		c-0.44-0.531-0.831-1.092-1.171-1.674c-1.231,0.002-2.221,1.139-2.221,2.542s0.99,2.54,2.224,2.54c0.309,0,0.603-0.07,0.866-0.197
		c1.082,3.153,3.211,5.825,5.973,7.635l1.613-4.899c0.201-0.615,0.777-1.031,1.425-1.031h10.51c0.646,0,1.223,0.415,1.426,1.03
		l1.627,4.936c2.778-1.808,4.924-4.484,6.016-7.647c0.25,0.112,0.523,0.179,0.811,0.179C39.721,32.795,40.711,31.658,40.711,30.255z
		"/>
</g>
<g>
</g>
<g>
</g>
<g>
</g>
<g>
</g>
<g>
</g>
<g>
</g>
<g>
</g>
<g>
</g>
<g>
</g>
<g>
</g>
<g>
</g>
<g>
</g>
<g>
</g>
<g>
</g>
<g>
</g>
</svg>
