<?xml version="1.0" encoding="iso-8859-1"?>
<!-- Generator: Adobe Illustrator 16.0.0, SVG Export Plug-In . SVG Version: 6.00 Build 0)  -->
<!DOCTYPE svg PUBLIC "-//W3C//DTD SVG 1.1//EN" "http://www.w3.org/Graphics/SVG/1.1/DTD/svg11.dtd">
<svg version="1.1" id="Capa_1" xmlns="http://www.w3.org/2000/svg" xmlns:xlink="http://www.w3.org/1999/xlink" x="0px" y="0px"
	 width="42.998px" height="42.998px" viewBox="0 0 42.998 42.998" style="enable-background:new 0 0 42.998 42.998;"
	 xml:space="preserve">
<g>
	<g>
		<ellipse cx="21.5" cy="25.585" rx="2.5" ry="1"/>
		<path d="M40.59,17.783c-0.226-2.135-0.703-4.685-1.529-6.502C38.854,10.828,33.925,0.376,21.5,0.376
			c-12.547,0-17.319,10.503-17.516,10.95c-0.806,1.771-1.279,4.281-1.506,6.401C0.974,18.926,0,20.826,0,22.958
			c0,2.969,1.885,5.484,4.463,6.291c2.148,4.111,5.726,7.254,9.99,8.926l-0.682,3.242c-0.062,0.295,0.012,0.602,0.202,0.836
			c0.19,0.232,0.475,0.369,0.776,0.369h13.5c0.301,0,0.586-0.137,0.774-0.369c0.19-0.234,0.266-0.541,0.203-0.836l-0.679-3.221
			c4.298-1.67,7.903-4.83,10.06-8.971c2.541-0.832,4.391-3.328,4.391-6.269C43,20.859,42.057,18.986,40.59,17.783z M21.5,34.188
			c-1.043,0-1.979,0.188-2.645,0.487l0.487-2.112h4.348l0.473,2.123C23.494,34.382,22.555,34.188,21.5,34.188z M36.758,25.522
			c-0.289,0-0.562-0.066-0.816-0.183c-1.32,3.83-4.168,6.959-7.825,8.695l-0.871-3.908c-0.204-0.914-1.015-1.563-1.952-1.563h-7.541
			c-0.932,0-1.74,0.643-1.949,1.551l-0.899,3.9c-3.642-1.744-6.476-4.869-7.787-8.693c-0.269,0.129-0.563,0.201-0.874,0.201
			c-1.244,0-2.242-1.146-2.242-2.563c0-1.413,0.996-2.56,2.238-2.562c0.342,0.586,0.735,1.149,1.18,1.687
			c-0.416-1.429-0.644-2.897-0.644-4.355c0-2.377,0.604-4.445,1.656-6.188c0.303-0.473,0.708-1.031,1.203-1.627
			c2.68-3.025,6.99-4.686,11.866-4.686c5.057,0,9.518,1.775,12.168,5.021c0.05,0.061,0.096,0.125,0.143,0.187
			c1.522,1.944,2.416,4.393,2.416,7.295c0,1.456-0.229,2.926-0.645,4.353c0.445-0.536,0.838-1.101,1.182-1.687
			c1.241,0.004,2.237,1.149,2.237,2.562C39,24.376,38.002,25.522,36.758,25.522z"/>
		<circle cx="14.708" cy="19.143" r="2.25"/>
		<circle cx="28.292" cy="19.143" r="2.25"/>
	</g>
</g>
<g>
</g>
<g>
</g>
<g>
</g>
<g>
</g>
<g>
</g>
<g>
</g>
<g>
</g>
<g>
</g>
<g>
</g>
<g>
</g>
<g>
</g>
<g>
</g>
<g>
</g>
<g>
</g>
<g>
</g>
</svg>
