<?xml version="1.0" encoding="iso-8859-1"?>
<!-- Generator: Adobe Illustrator 16.0.0, SVG Export Plug-In . SVG Version: 6.00 Build 0)  -->
<!DOCTYPE svg PUBLIC "-//W3C//DTD SVG 1.1//EN" "http://www.w3.org/Graphics/SVG/1.1/DTD/svg11.dtd">
<svg version="1.1" id="Capa_1" xmlns="http://www.w3.org/2000/svg" xmlns:xlink="http://www.w3.org/1999/xlink" x="0px" y="0px"
	 width="45.305px" height="45.306px" viewBox="0 0 45.305 45.306" style="enable-background:new 0 0 45.305 45.306;"
	 xml:space="preserve">
<g>
	<path d="M25.152,25.207c0,0.553-1.119,1-2.5,1s-2.5-0.447-2.5-1s1.119-1,2.5-1S25.152,24.654,25.152,25.207z M39.965,28.764v8.042
		c0,4.688-4.35,8.5-9.692,8.5H15.034c-5.345,0-9.692-3.813-9.692-8.5v-8.045c-2.433-0.896-4.189-3.317-4.189-6.178
		c0-2.059,0.911-3.893,2.325-5.095c-0.719-1.781-0.83-4.318-0.154-6.958c1.034-4.05,3.178-5.08,5.428-4.711
		C11.507,2.969,15.98,0,22.653,0c6.629,0,11.122,2.975,13.904,5.819c2.248-0.368,4.391,0.664,5.425,4.712
		c0.675,2.639,0.563,5.174-0.153,6.955c1.414,1.203,2.324,3.04,2.324,5.098C44.152,25.441,42.396,27.867,39.965,28.764z
		 M37.284,15.799c-0.258-2.224-1.072-4.142-2.311-5.725c-0.055-0.071-0.102-0.137-0.158-0.208c-2.65-3.241-7.107-5.015-12.163-5.015
		c-4.868,0-9.173,1.654-11.854,4.671c-0.504,0.603-0.914,1.17-1.22,1.646c-0.813,1.35-1.358,2.896-1.56,4.63L37.284,15.799
		L37.284,15.799z M25.313,34.307l-0.475-2.121h-4.346l-0.486,2.112c0.666-0.299,1.602-0.487,2.645-0.487
		C23.705,33.811,24.646,34.004,25.313,34.307z M40.152,22.582c0-1.414-0.996-2.56-2.237-2.563c-0.343,0.586-0.734,1.15-1.181,1.688
		c0.373-1.282,0.585-2.597,0.626-3.907h-1.828c-0.003,0.013-0.002,0.027-0.006,0.041l-1,3.672c-0.18,0.653-0.771,1.106-1.447,1.106
		h-6.333c-0.549,0-1.055-0.301-1.315-0.783l-2-3.672c-0.063-0.116-0.11-0.238-0.141-0.364h-1.271
		c-0.03,0.125-0.077,0.248-0.141,0.364l-2,3.672c-0.264,0.482-0.77,0.783-1.317,0.783h-6.333c-0.678,0-1.27-0.453-1.447-1.106
		l-1-3.672c-0.004-0.013-0.003-0.027-0.006-0.041H7.946c0.041,1.312,0.253,2.625,0.626,3.907c-0.444-0.537-0.838-1.102-1.18-1.688
		c-1.243,0.003-2.239,1.149-2.239,2.563s0.998,2.562,2.242,2.562c0.312,0,0.604-0.07,0.874-0.199
		c0.158,0.461,0.347,0.908,0.548,1.35c0.3,0.244,0.575,0.595,0.86,1.061c1.861,0.01,4.164,0.909,6.216,2.604
		c0.313,0.258,0.583,0.513,0.834,0.766l0.228-0.986c0.211-0.908,1.019-1.551,1.949-1.551h7.541c0.938,0,1.748,0.649,1.952,1.564
		l0.21,0.943c0.244-0.244,0.505-0.49,0.808-0.736c2.176-1.797,4.633-2.702,6.549-2.596c0.135-0.377,0.303-0.715,0.543-0.975
		c0.217-0.464,0.42-0.938,0.588-1.426c0.254,0.113,0.526,0.182,0.816,0.182C39.154,25.145,40.152,23.996,40.152,22.582z"/>
</g>
<g>
</g>
<g>
</g>
<g>
</g>
<g>
</g>
<g>
</g>
<g>
</g>
<g>
</g>
<g>
</g>
<g>
</g>
<g>
</g>
<g>
</g>
<g>
</g>
<g>
</g>
<g>
</g>
<g>
</g>
</svg>
