<?xml version="1.0" encoding="iso-8859-1"?>
<!-- Generator: Adobe Illustrator 16.0.0, SVG Export Plug-In . SVG Version: 6.00 Build 0)  -->
<!DOCTYPE svg PUBLIC "-//W3C//DTD SVG 1.1//EN" "http://www.w3.org/Graphics/SVG/1.1/DTD/svg11.dtd">
<svg version="1.1" id="Capa_1" xmlns="http://www.w3.org/2000/svg" xmlns:xlink="http://www.w3.org/1999/xlink" x="0px" y="0px"
	 width="48.229px" height="48.229px" viewBox="0 0 48.229 48.229" style="enable-background:new 0 0 48.229 48.229;"
	 xml:space="preserve">
<g>
	<g>
		<ellipse cx="24.526" cy="34.292" rx="2.5" ry="1"/>
		<path d="M43.617,26.491c-0.149-1.422-0.416-3.026-0.819-4.479c1.147,0.798,1.83,1.669,1.844,1.686
			c0.124,0.164,0.335,0.232,0.535,0.178c0.196-0.057,0.341-0.229,0.358-0.434c1.166-12.458-5.517-15.004-6.63-15.339
			C33.552,2.727,28.02,0,22.46,0C11.628,0,4.6,10.171,4.306,10.604c-0.133,0.195-0.11,0.456,0.053,0.626
			c0.162,0.17,0.422,0.203,0.623,0.08c1.412-0.868,3.18-1.268,4.643-1.447c-3.121,1.49-5.287,3.501-6.453,6.002
			c-1.912,4.098-0.416,7.964-0.352,8.126c0.076,0.19,0.262,0.315,0.465,0.315c0.012,0,0.024,0,0.036-0.002
			c0.218-0.016,0.4-0.17,0.45-0.382c0.521-2.197,1.879-3.066,3.039-3.401c-0.684,1.726-1.098,3.979-1.307,5.914
			c-1.504,1.199-2.478,3.1-2.478,5.231c0,2.97,1.886,5.484,4.464,6.291c3.262,6.242,9.805,10.271,17.067,10.271
			c7.269,0,13.823-4.04,17.082-10.295c2.54-0.832,4.389-3.327,4.389-6.268C46.026,29.567,45.082,27.694,43.617,26.491z
			 M12.689,22.589c0.088-0.367,0.156-0.729,0.214-1.088H36.15c0.059,0.359,0.126,0.721,0.214,1.088
			c0.056,0.225,0.114,0.445,0.179,0.662H12.512C12.575,23.033,12.635,22.814,12.689,22.589z M39.785,34.231
			c-0.291,0-0.563-0.068-0.817-0.183c-2.039,5.918-7.713,10.183-14.41,10.183c-6.703,0-12.383-4.273-14.415-10.201
			c-0.269,0.129-0.563,0.201-0.874,0.201c-1.244,0-2.242-1.148-2.242-2.564c0-1.413,0.996-2.559,2.238-2.561
			c0.342,0.586,0.734,1.149,1.18,1.686c-0.271-0.93-0.451-1.877-0.553-2.829c0.695-0.668,1.339-1.601,1.865-2.712h25.541
			c0.524,1.111,1.17,2.044,1.864,2.712c-0.102,0.95-0.28,1.899-0.554,2.829c0.445-0.536,0.838-1.1,1.181-1.686
			c1.241,0.002,2.237,1.147,2.237,2.561C42.026,33.083,41.028,34.231,39.785,34.231z"/>
		<circle cx="17.734" cy="28.161" r="2.25"/>
		<circle cx="31.318" cy="28.161" r="2.25"/>
	</g>
</g>
<g>
</g>
<g>
</g>
<g>
</g>
<g>
</g>
<g>
</g>
<g>
</g>
<g>
</g>
<g>
</g>
<g>
</g>
<g>
</g>
<g>
</g>
<g>
</g>
<g>
</g>
<g>
</g>
<g>
</g>
</svg>
