<?xml version="1.0" encoding="iso-8859-1"?>
<!-- Generator: Adobe Illustrator 16.0.0, SVG Export Plug-In . SVG Version: 6.00 Build 0)  -->
<!DOCTYPE svg PUBLIC "-//W3C//DTD SVG 1.1//EN" "http://www.w3.org/Graphics/SVG/1.1/DTD/svg11.dtd">
<svg version="1.1" id="Capa_1" xmlns="http://www.w3.org/2000/svg" xmlns:xlink="http://www.w3.org/1999/xlink" x="0px" y="0px"
	 width="43.984px" height="43.984px" viewBox="0 0 43.984 43.984" style="enable-background:new 0 0 43.984 43.984;"
	 xml:space="preserve">
<g>
	<path d="M24.492,30.047c0,0.553-1.119,1-2.5,1s-2.5-0.447-2.5-1s1.119-1,2.5-1S24.492,29.494,24.492,30.047z M43.492,27.422
		c0,2.969-1.887,5.484-4.464,6.291c-3.261,6.242-9.806,10.271-17.067,10.271c-7.269,0-13.82-4.041-17.08-10.297
		c-2.539-0.83-4.389-3.324-4.389-6.266c0-1.545,0.514-2.963,1.365-4.086v-8.581c0-7.732,0.083-11.998,7.75-13.007
		c2.322-0.306,5.432,0.147,8.437,0.843C21.512,0.964,25.57,0,28.624,0c7.931,0,14.358,6.43,14.358,14.358
		c0,1.736-0.311,3.399-0.875,4.938v4.016C42.971,24.439,43.492,25.867,43.492,27.422z M31.246,22.514l0.002-0.004
		c-0.443-0.199-1.222-0.344-2.592-0.344c-3.178,0-3.178,0.771-3.178,1.229c0,1.128,2.104,3.144,4.178,3.144
		c1.967,0,2.179-2.196,2.179-3.144c0-0.254-0.002-0.604-0.546-0.866L31.246,22.514z M31.93,20.636l3.207,1.122
		c-0.553-0.979-1.013-2.139-1.316-3.415c-0.08-0.334-0.146-0.665-0.201-0.993c-2.801-2.132-6.219-2.186-6.219-2.186
		c0.277,2.963,0.35,3.501,0.367,3.582c-7.761-1.665-11.316-5.02-12.947-7.679c-1.688,0.716-3.167,1.705-4.362,2.943
		c0.146,1.291,0.061,2.782-0.313,4.331c-0.307,1.279-0.768,2.443-1.321,3.422l3.229-1.129c1.151-0.463,2.533-0.469,3.274-0.469
		c1.041,0,3.347,0.006,4.496,1.289h4.336c1.149-1.283,3.455-1.289,4.496-1.289C29.396,20.167,30.779,20.173,31.93,20.636z
		 M12.738,22.514l-0.043,0.016c-0.544,0.262-0.546,0.611-0.546,0.867c0,0.945,0.212,3.143,2.179,3.143
		c2.072,0,4.178-2.016,4.178-3.143c0-0.459,0-1.229-3.178-1.229c-1.37,0-2.146,0.146-2.592,0.345L12.738,22.514z M39.492,27.422
		c0-1.412-0.996-2.561-2.238-2.562c-0.342,0.586-0.734,1.15-1.18,1.688c0.209-0.717,0.37-1.445,0.479-2.178l-2.72-0.951
		c-0.008,3.111-1.646,5.121-4.177,5.121c-2.921,0-6.121-2.646-6.173-5.082h-2.982c-0.052,2.436-3.252,5.082-6.173,5.082
		c-2.531,0-4.169-2.008-4.177-5.121l-2.72,0.951c0.107,0.73,0.27,1.459,0.479,2.178c-0.445-0.535-0.838-1.102-1.18-1.688
		c-1.242,0.004-2.238,1.15-2.238,2.562c0,1.414,0.998,2.563,2.242,2.563c0.29,0,0.564-0.066,0.818-0.183
		c2.039,5.918,7.711,10.183,14.407,10.183c6.703,0,12.385-4.273,14.415-10.201c0.271,0.129,0.563,0.201,0.874,0.201
		C38.494,29.984,39.492,28.836,39.492,27.422z M27.774,18.748c-0.003,0-0.005-0.001-0.007-0.001
		C27.774,18.775,27.774,18.748,27.774,18.748z"/>
</g>
<g>
</g>
<g>
</g>
<g>
</g>
<g>
</g>
<g>
</g>
<g>
</g>
<g>
</g>
<g>
</g>
<g>
</g>
<g>
</g>
<g>
</g>
<g>
</g>
<g>
</g>
<g>
</g>
<g>
</g>
</svg>
