<?xml version="1.0" encoding="iso-8859-1"?>
<!-- Generator: Adobe Illustrator 16.0.0, SVG Export Plug-In . SVG Version: 6.00 Build 0)  -->
<!DOCTYPE svg PUBLIC "-//W3C//DTD SVG 1.1//EN" "http://www.w3.org/Graphics/SVG/1.1/DTD/svg11.dtd">
<svg version="1.1" id="Capa_1" xmlns="http://www.w3.org/2000/svg" xmlns:xlink="http://www.w3.org/1999/xlink" x="0px" y="0px"
	 width="43.333px" height="43.333px" viewBox="0 0 43.333 43.333" style="enable-background:new 0 0 43.333 43.333;"
	 xml:space="preserve">
<g>
	<g>
		<ellipse cx="21.497" cy="29.328" rx="2.5" ry="1"/>
		<circle cx="14.706" cy="23.197" r="2.25"/>
		<circle cx="28.288" cy="23.197" r="2.25"/>
		<path d="M43.227,11.223l-2.5-3.209c-0.084-0.106-0.209-0.176-0.348-0.188c-0.568-0.056-2.172-0.248-2.742-0.47
			c-1.103-0.426-2.65-1.819-3.896-2.938c-0.636-0.571-1.233-1.11-1.729-1.492c-0.854-0.649-2.709-1.577-3.677-1.836
			c-2.479-0.659-6.078-1.024-10.127-1.024c-5.826,0-11.281,0.77-14.235,2.006C2.665,2.619,0.311,5.461,0.209,6.916
			c-0.211,2.992,2.09,10.9,2.561,12.482c-0.123,0.707-0.221,1.412-0.292,2.076C0.974,22.671,0,24.572,0,26.705
			c0,2.969,1.885,5.483,4.463,6.291c3.261,6.242,9.805,10.271,17.068,10.271c7.268,0,13.82-4.041,17.08-10.295
			C41.15,32.14,43,29.644,43,26.705c0-2.103-0.943-3.976-2.41-5.179c-0.226-2.133-0.703-4.685-1.529-6.5
			c-0.054-0.117-0.422-0.896-1.146-1.988l5.021-1.018c0.17-0.033,0.31-0.154,0.369-0.316C43.361,11.541,43.331,11.359,43.227,11.223
			z M36.754,29.266c-0.29,0-0.562-0.065-0.816-0.183c-2.039,5.918-7.713,10.183-14.409,10.183c-6.703,0-12.383-4.272-14.415-10.201
			c-0.269,0.129-0.563,0.201-0.874,0.201c-1.244,0-2.242-1.146-2.242-2.563c0-1.414,0.998-2.562,2.242-2.562
			c0.023,0,0.045,0.008,0.069,0.008c0.01-1.328,0.2-3.172,0.541-4.82l11.203-2.27c0.274,0.348,0.518,0.639,0.691,0.84
			c0.151,0.174,0.404,0.221,0.609,0.117c0.206-0.105,0.312-0.341,0.255-0.564c-0.039-0.158-0.023-0.416,0.015-0.709l1.217-0.248
			c0.826,1.084,2.033,2.254,3.727,2.918c0.143,0.055,0.304,0.045,0.436-0.035c0.135-0.078,0.223-0.211,0.242-0.363
			c0.004-0.033,0.424-3.014,2.339-3.51c0.247,0.619,0.634,2.107-0.39,3.811c-0.086,0.146-0.094,0.326-0.021,0.479
			c0.075,0.152,0.224,0.256,0.392,0.274c0.099,0.013,0.86,0.097,1.933,0.097c1.118,0,2.569-0.094,3.955-0.457
			c0.979,1.31,2.127,2.199,3.185,2.476c0.067,0.711,0.108,1.388,0.112,1.961c0.003,0,0.005-0.002,0.007-0.002
			c1.244,0,2.242,1.147,2.242,2.563C38.996,28.119,37.998,29.266,36.754,29.266z"/>
	</g>
</g>
<g>
</g>
<g>
</g>
<g>
</g>
<g>
</g>
<g>
</g>
<g>
</g>
<g>
</g>
<g>
</g>
<g>
</g>
<g>
</g>
<g>
</g>
<g>
</g>
<g>
</g>
<g>
</g>
<g>
</g>
</svg>
