<?xml version="1.0" encoding="iso-8859-1"?>
<!-- Generator: Adobe Illustrator 16.0.0, SVG Export Plug-In . SVG Version: 6.00 Build 0)  -->
<!DOCTYPE svg PUBLIC "-//W3C//DTD SVG 1.1//EN" "http://www.w3.org/Graphics/SVG/1.1/DTD/svg11.dtd">
<svg version="1.1" id="Capa_1" xmlns="http://www.w3.org/2000/svg" xmlns:xlink="http://www.w3.org/1999/xlink" x="0px" y="0px"
	 width="44.758px" height="44.759px" viewBox="0 0 44.758 44.759" style="enable-background:new 0 0 44.758 44.759;"
	 xml:space="preserve">
<g>
	<path d="M25.239,29.567c0,0.631-1.281,1.145-2.859,1.145c-1.58,0-2.859-0.514-2.859-1.145c0-0.635,1.279-1.145,2.859-1.145
		C23.958,28.423,25.239,28.933,25.239,29.567z M43.735,28.302c0,2.926-1.837,5.408-4.361,6.242
		c-3.24,6.206-9.748,10.215-16.965,10.215c-7.211,0-13.708-3.998-16.949-10.191c-2.563-0.809-4.436-3.312-4.436-6.266
		c0-1.625,0.571-3.111,1.509-4.258C1.53,22.017,1.07,19.672,1.22,17.165c0.242-4.043,2.033-8.025,5.041-11.217
		c3.475-3.685,8.099-5.798,12.688-5.798c2.156,0,4.155,0.467,5.918,1.36c1.05-0.741,2.222-1.396,3.207-1.506
		c0.161-0.019,0.321,0.043,0.429,0.164c0.108,0.121,0.15,0.287,0.114,0.444c-0.228,0.982-0.431,2.164-0.549,3.293
		c0.306,0.318,0.593,0.652,0.858,1.002c0.047-0.021,0.09-0.049,0.138-0.069c0.916-0.39,1.896-0.588,2.914-0.588
		c4.104,0,8.208,3.166,10.213,7.878c1.757,4.129,1.478,8.48-0.381,11.453C42.995,24.772,43.735,26.445,43.735,28.302z M12.63,23.501
		c0,0.737,0,1.75,3.803,1.75c2.286,0,3.803-1.054,3.803-1.75s-1.517-1.75-3.803-1.75C12.63,21.75,12.63,22.408,12.63,23.501z
		 M39.735,28.302c0-0.79-0.32-1.486-0.814-1.953c-0.092-0.088-0.19-0.166-0.295-0.236c-0.012-0.008-0.021-0.014-0.033-0.02
		c-0.096-0.063-0.192-0.117-0.297-0.162c-0.043-0.02-0.09-0.031-0.135-0.048c-0.076-0.028-0.154-0.059-0.234-0.075
		c-0.135-0.027-0.271-0.047-0.409-0.047c-0.341,0.581-0.729,1.143-1.173,1.674c0.414-1.416,0.64-2.873,0.64-4.318
		c0-0.051-0.007-0.098-0.008-0.146c-3.313-2.737-5.171-6.714-5.923-8.668c-2.207,4.013-5.664,4.646-7.627,4.646
		c-1.126,0-1.895-0.202-1.925-0.211c-0.153-0.043-0.277-0.152-0.335-0.301c-0.059-0.146-0.043-0.313,0.041-0.447
		c0.563-0.902,0.465-1.598,0.261-2.041c-0.74,1.052-2.302,2.011-4.161,2.848c2.207,0.189,4.055,1.089,5.074,2.373
		c1.151-1.451,3.357-2.415,5.948-2.415c4.896,0,6.803,1.332,6.803,4.75c0,4.75-5.119,4.75-6.803,4.75
		c-2.591,0-4.797-0.963-5.948-2.414c-1.151,1.451-3.357,2.414-5.947,2.414c-1.683,0-6.803,0-6.803-4.75
		c0-0.877,0.128-1.616,0.397-2.229c-0.813,0.219-1.555,0.402-2.182,0.553c-0.041,0.422-0.068,0.851-0.068,1.293
		c0,1.444,0.226,2.901,0.638,4.317c-0.441-0.533-0.831-1.094-1.171-1.675c-0.14,0-0.274,0.019-0.407,0.048
		c-0.047,0.01-0.092,0.024-0.138,0.038c-0.082,0.023-0.162,0.052-0.24,0.085c-0.056,0.024-0.11,0.053-0.164,0.081
		c-0.059,0.031-0.114,0.068-0.17,0.105c-0.062,0.042-0.124,0.083-0.182,0.131C5.919,26.273,5.895,26.3,5.87,26.32
		c-0.336,0.312-0.594,0.729-0.729,1.207c-0.069,0.246-0.116,0.504-0.116,0.775c0,1.404,0.99,2.541,2.223,2.541
		c0.309,0,0.602-0.072,0.867-0.199c2.016,5.879,7.648,10.115,14.295,10.115c6.64,0,12.267-4.229,14.291-10.096
		c0.25,0.112,0.523,0.18,0.812,0.18C38.745,30.843,39.735,29.704,39.735,28.302z M28.327,25.251c3.803,0,3.803-1.013,3.803-1.75
		c0-1.093,0-1.75-3.803-1.75c-2.285,0-3.803,1.054-3.803,1.75C24.526,24.197,26.042,25.251,28.327,25.251z"/>
</g>
<g>
</g>
<g>
</g>
<g>
</g>
<g>
</g>
<g>
</g>
<g>
</g>
<g>
</g>
<g>
</g>
<g>
</g>
<g>
</g>
<g>
</g>
<g>
</g>
<g>
</g>
<g>
</g>
<g>
</g>
</svg>
