<?xml version="1.0" encoding="iso-8859-1"?>
<!-- Generator: Adobe Illustrator 16.0.0, SVG Export Plug-In . SVG Version: 6.00 Build 0)  -->
<!DOCTYPE svg PUBLIC "-//W3C//DTD SVG 1.1//EN" "http://www.w3.org/Graphics/SVG/1.1/DTD/svg11.dtd">
<svg version="1.1" id="Capa_1" xmlns="http://www.w3.org/2000/svg" xmlns:xlink="http://www.w3.org/1999/xlink" x="0px" y="0px"
	 width="44.758px" height="44.758px" viewBox="0 0 44.758 44.758" style="enable-background:new 0 0 44.758 44.758;"
	 xml:space="preserve">
<g>
	<path d="M25.238,29.565c0,0.632-1.281,1.146-2.859,1.146c-1.58,0-2.859-0.514-2.859-1.146c0-0.635,1.279-1.145,2.859-1.145
		C23.957,28.421,25.238,28.931,25.238,29.565z M43.734,28.301c0,2.925-1.838,5.408-4.361,6.241
		c-3.24,6.207-9.748,10.216-16.965,10.216c-7.211,0-13.709-3.998-16.949-10.192c-2.563-0.809-4.436-3.312-4.436-6.265
		c0-1.626,0.57-3.112,1.508-4.258c-1.002-2.028-1.463-4.371-1.313-6.879C1.46,13.121,3.251,9.138,6.259,5.947
		c3.475-3.685,8.1-5.798,12.688-5.798c2.156,0,4.156,0.467,5.918,1.36c1.051-0.742,2.223-1.396,3.207-1.506
		c0.162-0.017,0.322,0.044,0.43,0.165c0.108,0.121,0.15,0.287,0.113,0.445c-0.227,0.982-0.43,2.165-0.549,3.292
		c0.307,0.32,0.594,0.653,0.859,1.002c0.047-0.021,0.088-0.049,0.137-0.069c0.916-0.39,1.896-0.588,2.914-0.588
		c4.104,0,8.209,3.166,10.213,7.877c1.758,4.129,1.479,8.481-0.381,11.453C42.994,24.771,43.734,26.444,43.734,28.301z M12.629,23.5
		c0,0.737,0,1.75,3.803,1.75c2.286,0,3.803-1.055,3.803-1.75c0-0.697-1.517-1.75-3.803-1.75C12.629,21.75,12.629,22.409,12.629,23.5
		z M39.734,28.301c0-0.791-0.32-1.487-0.814-1.954c-0.092-0.087-0.19-0.166-0.295-0.236c-0.012-0.007-0.022-0.013-0.033-0.02
		c-0.096-0.063-0.192-0.116-0.297-0.162c-0.043-0.019-0.09-0.032-0.135-0.048c-0.076-0.028-0.154-0.059-0.234-0.075
		c-0.135-0.028-0.271-0.046-0.409-0.047c-0.341,0.581-0.729,1.142-1.173,1.673c0.414-1.416,0.64-2.872,0.64-4.317
		c0-0.051-0.008-0.098-0.008-0.146c-3.313-2.739-5.171-6.714-5.923-8.668c-2.207,4.012-5.666,4.646-7.627,4.646
		c-1.127,0-1.895-0.203-1.926-0.211c-0.153-0.042-0.276-0.152-0.335-0.3c-0.059-0.147-0.043-0.314,0.041-0.448
		c0.563-0.902,0.465-1.597,0.261-2.041c-0.739,1.051-2.302,2.011-4.161,2.848c2.207,0.19,4.055,1.088,5.074,2.373
		c1.15-1.451,3.357-2.415,5.947-2.415c4.896,0,6.803,1.332,6.803,4.75c0,4.75-5.119,4.75-6.803,4.75
		c-2.59,0-4.797-0.963-5.947-2.415c-1.15,1.451-3.357,2.415-5.947,2.415c-1.683,0-6.803,0-6.803-4.75
		c0-0.877,0.128-1.615,0.396-2.23c-0.813,0.218-1.555,0.403-2.182,0.552c-0.041,0.421-0.068,0.851-0.068,1.292
		c0,1.445,0.227,2.901,0.639,4.317C7.974,26.9,7.583,26.341,7.243,25.76c-0.14,0-0.274,0.019-0.407,0.047
		c-0.047,0.01-0.092,0.026-0.139,0.039c-0.081,0.024-0.161,0.051-0.239,0.085c-0.056,0.025-0.11,0.052-0.164,0.081
		c-0.06,0.032-0.114,0.068-0.17,0.104C6.062,26.158,6,26.198,5.941,26.248c-0.024,0.021-0.049,0.047-0.073,0.068
		c-0.337,0.312-0.595,0.728-0.729,1.207c-0.068,0.246-0.115,0.503-0.115,0.775c0,1.403,0.989,2.54,2.223,2.54
		c0.309,0,0.602-0.071,0.867-0.198c2.016,5.879,7.647,10.115,14.295,10.115c6.642,0,12.269-4.229,14.291-10.096
		c0.25,0.111,0.523,0.179,0.812,0.179C38.744,30.841,39.734,29.703,39.734,28.301z M28.326,25.25c3.803,0,3.803-1.013,3.803-1.75
		c0-1.091,0-1.75-3.803-1.75c-2.285,0-3.803,1.053-3.803,1.75C24.524,24.195,26.041,25.25,28.326,25.25z"/>
</g>
<g>
</g>
<g>
</g>
<g>
</g>
<g>
</g>
<g>
</g>
<g>
</g>
<g>
</g>
<g>
</g>
<g>
</g>
<g>
</g>
<g>
</g>
<g>
</g>
<g>
</g>
<g>
</g>
<g>
</g>
</svg>
