<?xml version="1.0" encoding="iso-8859-1"?>
<!-- Generator: Adobe Illustrator 16.0.0, SVG Export Plug-In . SVG Version: 6.00 Build 0)  -->
<!DOCTYPE svg PUBLIC "-//W3C//DTD SVG 1.1//EN" "http://www.w3.org/Graphics/SVG/1.1/DTD/svg11.dtd">
<svg version="1.1" id="Capa_1" xmlns="http://www.w3.org/2000/svg" xmlns:xlink="http://www.w3.org/1999/xlink" x="0px" y="0px"
	 width="45.188px" height="45.188px" viewBox="0 0 45.188 45.188" style="enable-background:new 0 0 45.188 45.188;"
	 xml:space="preserve">
<g>
	<g>
		<ellipse cx="22.589" cy="31.252" rx="2.5" ry="1"/>
		<path d="M41.68,23.45c-0.023-0.229-0.053-0.464-0.083-0.7c0.384-0.035,0.718-0.277,0.851-0.646
			c0.592-1.628,0.894-3.306,0.894-4.986c0-2.14-0.485-4.254-1.444-6.281c-0.232-0.492-0.816-0.709-1.314-0.484l-2.616,1.18
			l1.849-2.943c0.229-0.364,0.198-0.836-0.074-1.168c-3.473-4.213-8.967-6.918-15.076-7.42c-0.481-0.033-0.897,0.252-1.036,0.699
			l-1.036,3.302L21.56,0.701c-0.14-0.447-0.574-0.727-1.037-0.699c-6.11,0.502-11.605,3.207-15.076,7.42
			C5.174,7.754,5.142,8.226,5.373,8.59l1.848,2.943l-2.617-1.18c-0.496-0.223-1.08-0.007-1.313,0.484
			c-0.959,2.027-1.445,4.143-1.445,6.281c0,1.683,0.302,3.359,0.896,4.987c0.14,0.386,0.502,0.64,0.908,0.652
			c-0.029,0.217-0.056,0.431-0.078,0.639c-1.504,1.199-2.478,3.098-2.478,5.231c0,2.969,1.886,5.482,4.464,6.291
			c3.262,6.241,9.805,10.271,17.067,10.271c7.269,0,13.821-4.04,17.081-10.295c2.537-0.832,4.389-3.327,4.389-6.269
			C44.089,26.526,43.146,24.652,41.68,23.45z M37.847,31.189c-0.29,0-0.563-0.065-0.817-0.182
			c-2.039,5.918-7.711,10.182-14.408,10.182c-6.703,0-12.384-4.272-14.415-10.201c-0.27,0.129-0.563,0.201-0.874,0.201
			c-1.244,0-2.242-1.146-2.242-2.562c0-1.412,0.996-2.561,2.237-2.563c0.343,0.586,0.734,1.15,1.181,1.688
			c-0.416-1.429-0.644-2.896-0.644-4.354c0-0.218,0.022-0.423,0.033-0.635h1.209c-0.023,0.206-0.013,0.417,0.051,0.62l1.175,3.75
			c0.196,0.626,0.774,1.052,1.432,1.052h6.459c0.535,0,1.029-0.285,1.298-0.747l2.176-3.75c0.164-0.285,0.215-0.607,0.18-0.925h1.43
			c-0.034,0.314,0.017,0.64,0.181,0.925l2.176,3.75c0.269,0.462,0.763,0.747,1.298,0.747h6.459c0.655,0,1.235-0.426,1.433-1.052
			l1.174-3.75c0.063-0.203,0.074-0.414,0.051-0.62h1.209c0.012,0.212,0.033,0.417,0.033,0.635c0,1.457-0.228,2.927-0.644,4.354
			c0.444-0.537,0.838-1.103,1.181-1.688c1.241,0.003,2.237,1.148,2.237,2.563C40.089,30.043,39.091,31.189,37.847,31.189z"/>
	</g>
</g>
<g>
</g>
<g>
</g>
<g>
</g>
<g>
</g>
<g>
</g>
<g>
</g>
<g>
</g>
<g>
</g>
<g>
</g>
<g>
</g>
<g>
</g>
<g>
</g>
<g>
</g>
<g>
</g>
<g>
</g>
</svg>
