<?xml version="1.0" encoding="iso-8859-1"?>
<!-- Generator: Adobe Illustrator 16.0.0, SVG Export Plug-In . SVG Version: 6.00 Build 0)  -->
<!DOCTYPE svg PUBLIC "-//W3C//DTD SVG 1.1//EN" "http://www.w3.org/Graphics/SVG/1.1/DTD/svg11.dtd">
<svg version="1.1" id="Capa_1" xmlns="http://www.w3.org/2000/svg" xmlns:xlink="http://www.w3.org/1999/xlink" x="0px" y="0px"
	 width="49.07px" height="49.069px" viewBox="0 0 49.07 49.069" style="enable-background:new 0 0 49.07 49.069;"
	 xml:space="preserve">
<g>
	<g>
		<ellipse cx="24.535" cy="31.325" rx="2.5" ry="1"/>
		<circle cx="17.743" cy="25.195" r="2.25"/>
		<circle cx="31.327" cy="25.195" r="2.25"/>
		<path d="M48.233,38.788c-0.285-0.957-0.554-1.861-0.61-2.485c-0.286-3.175-0.146-12.85-0.145-12.954
			c0-12.453-10.28-22.584-22.916-22.584C11.926,0.764,1.645,10.895,1.645,23.366c0.004,0.098,0.322,9.833,0.002,13.016
			c-0.063,0.636-0.373,1.562-0.7,2.537c-0.624,1.867-1.271,3.8-0.767,5.072c0.521,1.309,3.049,2.592,4.199,2.826
			c4.631,0.944,11.879,1.487,19.887,1.487c0.002,0,0.002,0,0.002,0c8.138,0,15.548-0.55,20.33-1.509
			c1.183-0.237,3.694-1.479,4.256-2.795C49.401,42.719,48.806,40.722,48.233,38.788z M38.917,31.081
			c-2.034,5.91-7.694,10.17-14.378,10.183c-6.69-0.013-12.356-4.278-14.387-10.2c-0.017,0.01-0.034,0.012-0.05,0.02
			c-0.002-0.006-0.006-0.012-0.008-0.02c-0.26,0.125-0.545,0.193-0.846,0.198c-1.23-0.019-2.213-1.155-2.213-2.562
			c0-1.403,0.983-2.541,2.214-2.559c0.01,0.001,0.018,0.002,0.025,0.003c0.343,0.584,0.734,1.146,1.179,1.683
			c-0.353-1.209-0.56-2.444-0.617-3.683c1.147-1.161,2.147-3.027,2.681-5.252c0.238-0.993,0.36-1.965,0.381-2.876
			c1.16,1.754,2.533,3.511,3.688,4.097c1.594,0.809,4.29,1.202,8.246,1.202c0,0,0,0,0.001,0c4.489,0,9.524-0.53,12.194-0.856
			c0.562,1.533,1.342,2.811,2.209,3.688c-0.059,1.234-0.266,2.473-0.617,3.68c0.443-0.535,0.836-1.098,1.178-1.682
			c1.218,0.036,2.185,1.163,2.185,2.557c0,1.403-0.982,2.541-2.213,2.561c-0.279-0.005-0.545-0.066-0.791-0.18
			c-0.002,0.007-0.004,0.013-0.006,0.019C38.952,31.094,38.933,31.091,38.917,31.081z"/>
	</g>
</g>
<g>
</g>
<g>
</g>
<g>
</g>
<g>
</g>
<g>
</g>
<g>
</g>
<g>
</g>
<g>
</g>
<g>
</g>
<g>
</g>
<g>
</g>
<g>
</g>
<g>
</g>
<g>
</g>
<g>
</g>
</svg>
