<?xml version="1.0" encoding="iso-8859-1"?>
<!-- Generator: Adobe Illustrator 16.0.0, SVG Export Plug-In . SVG Version: 6.00 Build 0)  -->
<!DOCTYPE svg PUBLIC "-//W3C//DTD SVG 1.1//EN" "http://www.w3.org/Graphics/SVG/1.1/DTD/svg11.dtd">
<svg version="1.1" id="Capa_1" xmlns="http://www.w3.org/2000/svg" xmlns:xlink="http://www.w3.org/1999/xlink" x="0px" y="0px"
	 width="45.984px" height="45.984px" viewBox="0 0 45.984 45.984" style="enable-background:new 0 0 45.984 45.984;"
	 xml:space="preserve">
<g>
	<path d="M22.991,0C9.736,0,1.503,10.664,1.503,27.831c0,7.999,4.905,14.718,9.309,15.745c0.302,0.072,0.623-0.003,0.863-0.202
		c0.24-0.198,0.375-0.498,0.362-0.812l-0.026-0.709c0.844,1.641,1.813,3.233,2.664,3.912c0.18,0.145,0.399,0.219,0.623,0.219
		c0.143,0,0.285-0.03,0.42-0.094c0.344-0.158,0.567-0.498,0.58-0.877c0.002-0.068,0.162-4.272,1.674-7.586
		c1.597,0.527,3.295,0.816,5.045,0.816c1.73,0,3.414-0.284,4.996-0.804c1.508,3.311,1.672,7.503,1.674,7.571
		c0.014,0.379,0.236,0.719,0.58,0.877c0.344,0.16,0.746,0.109,1.043-0.125c0.852-0.678,1.818-2.271,2.664-3.912l-0.027,0.709
		c-0.014,0.313,0.123,0.611,0.361,0.812c0.24,0.2,0.562,0.272,0.865,0.202c4.494-1.049,9.309-7.626,9.309-15.745
		C44.479,10.664,36.245,0,22.991,0z M11.739,26.266c-0.21,0.102-0.441,0.158-0.684,0.158c-0.974,0-1.754-0.898-1.754-2.007
		c0-1.104,0.778-2.002,1.75-2.005c0.269,0.459,0.574,0.9,0.924,1.321c-0.325-1.117-0.504-2.266-0.504-3.406
		c0-0.372,0.021-0.732,0.059-1.086h14.415c0.553,0,1-0.447,1-1v-2.656l3.135,3.342c0.188,0.2,0.453,0.314,0.729,0.314h3.646
		c0.035,0.354,0.058,0.714,0.058,1.085c0,1.142-0.179,2.29-0.504,3.406c0.351-0.422,0.655-0.861,0.924-1.32
		c0.972,0.003,1.75,0.898,1.75,2.005s-0.78,2.007-1.754,2.007c-0.228,0-0.44-0.056-0.64-0.145
		c-1.596,4.629-6.032,7.965-11.271,7.965C17.771,34.246,13.329,30.903,11.739,26.266z M24.723,26.473c0,0.432-0.875,0.78-1.957,0.78
		c-1.08,0-1.955-0.351-1.955-0.78c0-0.435,0.875-0.782,1.955-0.782C23.848,25.69,24.723,26.04,24.723,26.473z M19.323,21.676
		c0,1.03-0.838,1.868-1.868,1.868c-1.03,0-1.868-0.838-1.868-1.868c0-1.029,0.838-1.867,1.868-1.867
		C18.485,19.809,19.323,20.644,19.323,21.676z M29.95,21.676c0,1.03-0.84,1.868-1.869,1.868s-1.869-0.838-1.869-1.868
		c0-1.029,0.84-1.867,1.869-1.867C29.11,19.808,29.95,20.644,29.95,21.676z"/>
</g>
<g>
</g>
<g>
</g>
<g>
</g>
<g>
</g>
<g>
</g>
<g>
</g>
<g>
</g>
<g>
</g>
<g>
</g>
<g>
</g>
<g>
</g>
<g>
</g>
<g>
</g>
<g>
</g>
<g>
</g>
</svg>
