<?xml version="1.0" encoding="iso-8859-1"?>
<!-- Generator: Adobe Illustrator 16.0.0, SVG Export Plug-In . SVG Version: 6.00 Build 0)  -->
<!DOCTYPE svg PUBLIC "-//W3C//DTD SVG 1.1//EN" "http://www.w3.org/Graphics/SVG/1.1/DTD/svg11.dtd">
<svg version="1.1" id="Capa_1" xmlns="http://www.w3.org/2000/svg" xmlns:xlink="http://www.w3.org/1999/xlink" x="0px" y="0px"
	 width="45.552px" height="45.552px" viewBox="0 0 45.552 45.552" style="enable-background:new 0 0 45.552 45.552;"
	 xml:space="preserve">
<g>
	<g>
		<ellipse cx="22.776" cy="28.484" rx="2.5" ry="1"/>
		<circle cx="15.984" cy="22.352" r="2.25"/>
		<circle cx="29.567" cy="22.352" r="2.25"/>
		<path d="M42.338,35.303c-0.554-0.74-0.738-2.138-0.691-4.094c1.591-1.191,2.631-3.146,2.631-5.352
			c0-1.688-0.617-3.224-1.617-4.388c0.196-1.464,0.405-3.013,0.619-4.654c1.265-9.723-0.375-15.325-3.032-15.13
			c-1.828-0.212-4.807,2.981-6.437,4.971c-2.706-1.884-6.332-3.382-11.035-3.382c-4.728,0-8.351,1.491-11.041,3.373
			c-1.63-1.99-4.604-5.172-6.427-4.961C2.65,1.492,1.01,7.094,2.275,16.817c0.214,1.641,0.423,3.189,0.619,4.653
			c-1.001,1.164-1.618,2.701-1.618,4.389c0,2.204,1.041,4.153,2.631,5.344c0.048,1.962-0.14,3.36-0.692,4.103
			c-1.24,2.468-4.092,0.07-2.951,2.208c0.636,1.2,5.091,6.634,7.494,6.352c1.574,0.114,3.131-1.571,3.877-4.982
			c3.186,2.251,7.063,3.543,11.174,3.543c4.084,0,7.943-1.276,11.117-3.504c0.75,3.385,2.303,5.059,3.869,4.943
			c2.404,0.283,6.859-5.15,7.494-6.352C46.427,35.375,43.578,37.772,42.338,35.303z M37.902,8.567
			c0.315,0.422,0.36,1.183,0.237,2.186c-0.584-0.735-1.288-1.525-2.129-2.309C36.884,8.075,37.612,7.989,37.902,8.567z M7.649,8.567
			c0.29-0.578,1.016-0.492,1.889-0.124c-0.841,0.792-1.544,1.591-2.123,2.334C7.287,9.761,7.33,8.992,7.649,8.567z M22.807,38.422
			c-4.182,0-7.965-1.664-10.713-4.354l0,0c-0.373-0.365-0.721-0.755-1.053-1.156c-0.076-0.091-0.149-0.183-0.224-0.273
			c-0.644-0.813-1.202-1.691-1.667-2.625c-0.057-0.113-0.109-0.228-0.164-0.34c-0.22-0.474-0.425-0.953-0.596-1.45
			c-0.27,0.129-0.563,0.201-0.874,0.201c-1.244,0-2.242-1.147-2.242-2.563c0-1.414,0.996-2.56,2.237-2.562
			c0.343,0.586,0.734,1.149,1.181,1.687c-0.25-0.857-0.423-1.731-0.528-2.609c1.15-1.118,2.157-2.948,2.717-5.139
			c0.988,0.191,2.02,0.363,3.094,0.507c0.191,0.025,0.386-0.062,0.49-0.23l3.076-4.924c0.205,1.129,0.368,2.981-0.207,4.903
			c-0.045,0.145-0.021,0.302,0.065,0.427c0.087,0.125,0.226,0.204,0.376,0.215c1.684,0.122,3.355,0.184,4.971,0.184
			c4.226,0,8.292-0.379,11.919-1.093c0.56,2.195,1.566,4.03,2.719,5.15c-0.104,0.877-0.276,1.751-0.526,2.609
			c0.444-0.536,0.838-1.101,1.18-1.687c1.242,0.002,2.238,1.147,2.238,2.562c0,1.415-0.998,2.563-2.242,2.563
			c-0.29,0-0.564-0.067-0.818-0.184c-0.174,0.504-0.383,0.991-0.605,1.471c-0.051,0.106-0.104,0.216-0.155,0.32
			c-0.479,0.957-1.057,1.855-1.722,2.687c-0.059,0.068-0.113,0.141-0.171,0.21c-0.349,0.417-0.714,0.821-1.104,1.199l0,0
			C30.713,36.781,26.959,38.422,22.807,38.422z"/>
	</g>
</g>
<g>
</g>
<g>
</g>
<g>
</g>
<g>
</g>
<g>
</g>
<g>
</g>
<g>
</g>
<g>
</g>
<g>
</g>
<g>
</g>
<g>
</g>
<g>
</g>
<g>
</g>
<g>
</g>
<g>
</g>
</svg>
