<?xml version="1.0" encoding="iso-8859-1"?>
<!-- Generator: Adobe Illustrator 16.0.0, SVG Export Plug-In . SVG Version: 6.00 Build 0)  -->
<!DOCTYPE svg PUBLIC "-//W3C//DTD SVG 1.1//EN" "http://www.w3.org/Graphics/SVG/1.1/DTD/svg11.dtd">
<svg version="1.1" id="Capa_1" xmlns="http://www.w3.org/2000/svg" xmlns:xlink="http://www.w3.org/1999/xlink" x="0px" y="0px"
	 width="45.744px" height="45.744px" viewBox="0 0 45.744 45.744" style="enable-background:new 0 0 45.744 45.744;"
	 xml:space="preserve">
<g>
	<path d="M40.384,23.168c-0.137-1.317-0.381-2.809-0.756-4.157V6.364c0-0.579-0.371-1.092-0.922-1.271L23.284,0.066
		c-0.27-0.088-0.561-0.088-0.828,0L7.033,5.092c-0.55,0.179-0.922,0.693-0.922,1.272v12.845c-0.337,1.272-0.562,2.667-0.692,3.91
		c-1.385,1.083-2.283,2.814-2.283,4.765c0,2.705,1.729,4.992,4.084,5.703c1.805,3.479,4.726,6.209,8.226,7.826v2.995
		c0,0.736,0.599,1.336,1.337,1.336H28.96c0.738,0,1.339-0.601,1.339-1.336v-2.971c3.53-1.616,6.479-4.363,8.293-7.874
		c2.319-0.732,4.016-3.004,4.016-5.682C42.604,25.964,41.733,24.254,40.384,23.168z M9.332,21.091
		c-0.187,0.091-0.369,0.182-0.548,0.273c-0.408,0.208-0.801,0.416-1.165,0.62c0.313-1.161,0.655-2.254,1.165-3.245
		c0.742-1.446,1.837-2.676,3.717-3.578c0.03-0.015,0.063-0.029,0.096-0.044c0.674-0.315,1.447-0.591,2.34-0.819
		c1.986-0.51,4.562-0.793,7.935-0.793c2.763,0,4.987,0.173,6.795,0.492c1.259,0.222,2.31,0.516,3.197,0.87
		c0.053,0.02,0.105,0.039,0.154,0.06c2.062,0.858,3.201,2.061,3.938,3.489c0.559,1.083,0.887,2.295,1.199,3.586
		c-0.375-0.209-0.777-0.423-1.199-0.638c-0.156-0.081-0.318-0.161-0.482-0.241c-0.059-0.029-0.117-0.058-0.178-0.087
		c-3.402-1.649-8.084-3.254-13.425-3.254c-5.341,0-10.021,1.605-13.426,3.254C9.407,21.055,9.37,21.073,9.332,21.091z M22.87,37.253
		c-1.746,0-3.288,0.312-4.247,0.795l0.97-2.944h6.557l0.969,2.944C26.158,37.565,24.617,37.253,22.87,37.253z M36.968,30.251
		c-0.27,0-0.521-0.063-0.756-0.167c-1.117,3.243-3.422,5.938-6.396,7.604l-1.43-4.34c-0.184-0.547-0.693-0.918-1.271-0.918h-8.49
		c-0.575,0-1.089,0.371-1.271,0.918l-1.42,4.313c-2.959-1.67-5.246-4.362-6.354-7.597c-0.248,0.119-0.521,0.188-0.808,0.188
		c-1.149,0-2.073-1.06-2.073-2.367s0.923-2.364,2.069-2.367c0.315,0.541,0.679,1.063,1.09,1.56C9.643,26.34,9.49,25.592,9.389,24.84
		c-0.068-0.521-0.108-1.043-0.117-1.565c-0.002-0.05-0.006-0.101-0.006-0.15c0.42-0.221,0.869-0.442,1.338-0.664
		c3.182-1.493,7.443-2.894,12.266-2.894c4.823,0,9.084,1.401,12.264,2.894c0.471,0.221,0.92,0.442,1.34,0.664
		c0,0.05-0.004,0.101-0.006,0.15c-0.01,0.522-0.049,1.045-0.117,1.565c-0.102,0.752-0.254,1.5-0.469,2.237
		c0.41-0.495,0.773-1.019,1.09-1.56c1.146,0.002,2.068,1.062,2.068,2.367C39.041,29.188,38.117,30.251,36.968,30.251z M25.181,30.31
		c0,0.188-0.141,0.357-0.375,0.502l-0.143,0.074c-0.424,0.209-1.064,0.346-1.793,0.346s-1.369-0.137-1.793-0.346l-0.143-0.074
		c-0.234-0.145-0.375-0.314-0.375-0.502c0-0.298,0.356-0.561,0.902-0.729c0.391-0.121,0.875-0.196,1.407-0.196
		c0.532,0,1.017,0.075,1.407,0.196C24.824,29.75,25.181,30.012,25.181,30.31z M18.657,24.643c0,0.643-0.301,1.207-0.76,1.586
		c-0.356,0.293-0.807,0.478-1.303,0.478c-1.139,0-2.063-0.925-2.063-2.063c0-0.05,0.011-0.098,0.015-0.146
		c0.078-1.067,0.963-1.916,2.049-1.916C17.731,22.581,18.657,23.507,18.657,24.643z M31.195,24.497
		c0.004,0.05,0.014,0.098,0.014,0.146c0,1.139-0.924,2.063-2.062,2.063c-0.496,0-0.943-0.186-1.303-0.478
		c-0.459-0.379-0.76-0.943-0.76-1.586c0-1.137,0.926-2.062,2.062-2.062C30.233,22.581,31.117,23.429,31.195,24.497z"/>
</g>
<g>
</g>
<g>
</g>
<g>
</g>
<g>
</g>
<g>
</g>
<g>
</g>
<g>
</g>
<g>
</g>
<g>
</g>
<g>
</g>
<g>
</g>
<g>
</g>
<g>
</g>
<g>
</g>
<g>
</g>
</svg>
