<?xml version="1.0" encoding="iso-8859-1"?>
<!-- Generator: Adobe Illustrator 16.0.0, SVG Export Plug-In . SVG Version: 6.00 Build 0)  -->
<!DOCTYPE svg PUBLIC "-//W3C//DTD SVG 1.1//EN" "http://www.w3.org/Graphics/SVG/1.1/DTD/svg11.dtd">
<svg version="1.1" id="Capa_1" xmlns="http://www.w3.org/2000/svg" xmlns:xlink="http://www.w3.org/1999/xlink" x="0px" y="0px"
	 width="43.003px" height="43.003px" viewBox="0 0 43.003 43.003" style="enable-background:new 0 0 43.003 43.003;"
	 xml:space="preserve">
<g>
	<g>
		<ellipse cx="21.502" cy="28.177" rx="2.5" ry="1"/>
		<path d="M40.594,19.975v-7.493c0-7.732,0.043-11.646-7.293-11.646H9.582c-7.337,0-7.176,3.914-7.176,11.646v7.499
			C0.944,21.183,0,23.05,0,25.148c0,2.97,1.887,5.484,4.465,6.291c2.332,4.467,6.351,7.789,11.104,9.324
			c0.254,0.813,1.004,1.404,1.899,1.404h8.062c0.889,0,1.633-0.582,1.895-1.383c4.793-1.529,8.844-4.871,11.188-9.369
			c2.541-0.832,4.392-3.328,4.392-6.27C43.002,23.048,42.057,21.175,40.594,19.975z M36.76,27.71c-0.291,0-0.564-0.066-0.818-0.184
			c-1.461,4.24-4.791,7.621-9.021,9.203c-0.123-0.119-0.261-0.226-0.412-0.31l-4.031-2.25c-0.604-0.34-1.344-0.338-1.948,0
			l-4.031,2.25c-0.146,0.08-0.272,0.183-0.392,0.293c-4.217-1.592-7.535-4.971-8.986-9.207c-0.27,0.129-0.563,0.201-0.874,0.201
			c-1.243,0-2.241-1.146-2.241-2.563c0-1.414,0.995-2.561,2.237-2.562c0.343,0.586,0.733,1.15,1.181,1.688
			c-0.018-0.057-0.029-0.113-0.045-0.17l0.034,0.045c-0.019-0.324-0.032-0.647-0.032-0.979c0-6.593,3.605-11.938,8.053-11.938
			c6.041,0,4.979,4.109,6.072,4.109c1.188,0,0.03-4.109,6.07-4.109c4.447,0,8.055,5.345,8.055,11.938
			c0,0.332-0.018,0.655-0.033,0.979l0.033-0.045c-0.016,0.058-0.027,0.113-0.043,0.17c0.443-0.535,0.838-1.102,1.18-1.688
			c1.242,0.002,2.238,1.148,2.238,2.562C39.002,26.564,38.004,27.71,36.76,27.71z"/>
		<circle cx="14.709" cy="21.642" r="2.25"/>
		<circle cx="28.293" cy="21.642" r="2.25"/>
	</g>
</g>
<g>
</g>
<g>
</g>
<g>
</g>
<g>
</g>
<g>
</g>
<g>
</g>
<g>
</g>
<g>
</g>
<g>
</g>
<g>
</g>
<g>
</g>
<g>
</g>
<g>
</g>
<g>
</g>
<g>
</g>
</svg>
