<?xml version="1.0" encoding="iso-8859-1"?>
<!-- Generator: Adobe Illustrator 16.0.0, SVG Export Plug-In . SVG Version: 6.00 Build 0)  -->
<!DOCTYPE svg PUBLIC "-//W3C//DTD SVG 1.1//EN" "http://www.w3.org/Graphics/SVG/1.1/DTD/svg11.dtd">
<svg version="1.1" id="Capa_1" xmlns="http://www.w3.org/2000/svg" xmlns:xlink="http://www.w3.org/1999/xlink" x="0px" y="0px"
	 width="48.604px" height="48.604px" viewBox="0 0 48.604 48.604" style="enable-background:new 0 0 48.604 48.604;"
	 xml:space="preserve">
<g>
	<g>
		<ellipse cx="24.302" cy="31.458" rx="2.5" ry="1"/>
		<path d="M43.394,23.657c-0.227-2.134-0.704-4.684-1.53-6.501c-0.188-0.412-4.261-9.047-14.285-10.651l-1.812-5.476
			c-0.2-0.612-0.771-1.026-1.416-1.029c-0.003,0-0.005,0-0.008,0c-0.643,0-1.212,0.408-1.42,1.015L21.049,6.5
			C10.921,8.091,6.966,16.793,6.787,17.199c-0.807,1.771-1.279,4.283-1.508,6.402c-1.504,1.199-2.478,3.101-2.478,5.232
			c0,2.969,1.886,5.483,4.464,6.291c2.15,4.116,5.732,7.261,10.005,8.932v2.548c0,1.104,0.896,2,2,2h10.062c1.104,0,2-0.896,2-2
			V44.08c4.308-1.666,7.921-4.831,10.08-8.979c2.539-0.832,4.39-3.325,4.39-6.267C45.802,26.732,44.86,24.859,43.394,23.657z
			 M24.302,40.062c-1.043,0-1.979,0.189-2.645,0.488l0.486-2.113h4.346l0.475,2.122C26.296,40.255,25.356,40.062,24.302,40.062z
			 M39.56,31.396c-0.288,0-0.563-0.065-0.817-0.182c-1.318,3.831-4.168,6.959-7.822,8.694l-0.872-3.906
			c-0.205-0.915-1.019-1.565-1.953-1.565h-7.541c-0.932,0-1.738,0.644-1.949,1.552l-0.898,3.9c-3.643-1.744-6.477-4.871-7.786-8.693
			c-0.269,0.129-0.563,0.2-0.874,0.2c-1.244,0-2.242-1.146-2.242-2.562c0-1.413,0.996-2.56,2.236-2.563
			c0.344,0.586,0.736,1.151,1.182,1.688c-0.416-1.429-0.645-2.896-0.645-4.354c0-2.375,0.604-4.444,1.654-6.186
			c0.305-0.475,0.715-1.04,1.215-1.639c2.066-2.33,5.101-3.844,8.619-4.413l1.862,5.316c0.211,0.602,0.778,1.004,1.416,1.004
			c0.003,0,0.005,0,0.008,0c0.639-0.003,1.208-0.412,1.413-1.018l1.797-5.298c3.683,0.6,6.845,2.227,8.906,4.749
			c0.056,0.065,0.103,0.135,0.151,0.201c1.521,1.942,2.408,4.387,2.408,7.283c0,1.458-0.229,2.927-0.645,4.354
			c0.445-0.537,0.838-1.104,1.182-1.688c1.24,0.003,2.236,1.149,2.236,2.562C41.802,30.248,40.804,31.396,39.56,31.396z"/>
		<circle cx="17.51" cy="25.326" r="2.25"/>
		<circle cx="31.095" cy="25.326" r="2.25"/>
	</g>
</g>
<g>
</g>
<g>
</g>
<g>
</g>
<g>
</g>
<g>
</g>
<g>
</g>
<g>
</g>
<g>
</g>
<g>
</g>
<g>
</g>
<g>
</g>
<g>
</g>
<g>
</g>
<g>
</g>
<g>
</g>
</svg>
