<?xml version="1.0" encoding="iso-8859-1"?>
<!-- Generator: Adobe Illustrator 16.0.0, SVG Export Plug-In . SVG Version: 6.00 Build 0)  -->
<!DOCTYPE svg PUBLIC "-//W3C//DTD SVG 1.1//EN" "http://www.w3.org/Graphics/SVG/1.1/DTD/svg11.dtd">
<svg version="1.1" id="Capa_1" xmlns="http://www.w3.org/2000/svg" xmlns:xlink="http://www.w3.org/1999/xlink" x="0px" y="0px"
	 width="42.797px" height="42.797px" viewBox="0 0 42.797 42.797" style="enable-background:new 0 0 42.797 42.797;"
	 xml:space="preserve">
<g>
	<path d="M35.724,26.477c-0.068-0.644-0.177-1.334-0.312-2.021h0.291c0.832,0,1.508-0.675,1.508-1.509
		c0-0.832-0.676-1.507-1.508-1.507h-0.465V4.584C35.239,2.056,33.182,0,30.655,0h-0.43v1.508v1.508v4.603
		c0.416,0.309,0.689,0.801,0.689,1.358c0,0.936-0.761,1.697-1.695,1.697c-0.938,0-1.697-0.761-1.697-1.697
		c0-0.558,0.273-1.049,0.691-1.358V3.016V1.508V0h-16.01C9.675,0,7.619,2.056,7.619,4.584v16.857H7.155
		c-0.833,0-1.508,0.674-1.508,1.508c0,0.832,0.675,1.508,1.508,1.508h0.273c-0.13,0.67-0.236,1.348-0.304,1.979
		c-1.128,0.902-1.858,2.328-1.858,3.93c0,2.23,1.415,4.121,3.351,4.73c2.449,4.68,7.357,7.701,12.805,7.701
		c5.452,0,10.368-3.029,12.814-7.719c1.906-0.629,3.295-2.504,3.295-4.713C37.531,28.789,36.822,27.38,35.724,26.477z
		 M32.834,32.285c-0.217,0-0.422-0.051-0.611-0.137c-1.529,4.436-5.781,7.631-10.8,7.631c-5.024,0-9.281-3.202-10.804-7.646
		c-0.201,0.097-0.422,0.149-0.655,0.149c-0.932,0-1.681-0.858-1.681-1.92c0-1.062,0.749-1.92,1.681-1.92
		c0.01,0,0.02,0.002,0.03,0.004c0.256,0.438,0.55,0.859,0.883,1.261c-0.312-1.069-0.482-2.17-0.482-3.265
		c0-0.698,0.074-1.358,0.205-1.987h21.663c0.132,0.629,0.204,1.291,0.204,1.987c0,1.095-0.17,2.193-0.48,3.265
		c0.332-0.399,0.625-0.821,0.881-1.261c0.918,0.021,1.648,0.867,1.648,1.916C34.515,31.425,33.767,32.285,32.834,32.285z
		 M19.557,32.332c0-0.414,0.839-0.75,1.874-0.75c1.035,0,1.874,0.336,1.874,0.75c0,0.416-0.839,0.75-1.874,0.75
		C20.396,33.082,19.557,32.748,19.557,32.332z M27.043,35.199c0,0.125-0.09,0.23-0.215,0.25c-0.023,0.004-2.453,0.359-5.398,0.359
		s-5.375-0.355-5.399-0.359c-0.123-0.018-0.214-0.125-0.214-0.25s0.091-0.229,0.214-0.248c0.024-0.004,2.454-0.359,5.399-0.359
		s5.375,0.355,5.398,0.359C26.954,34.971,27.043,35.074,27.043,35.199z M16.339,29.55c-1,0-1.814-0.813-1.814-1.813
		s0.814-1.812,1.814-1.812s1.814,0.812,1.814,1.812S17.339,29.55,16.339,29.55z M28.334,27.736c0,1-0.812,1.813-1.812,1.813
		s-1.814-0.813-1.814-1.813s0.814-1.814,1.814-1.814S28.334,26.736,28.334,27.736z"/>
</g>
<g>
</g>
<g>
</g>
<g>
</g>
<g>
</g>
<g>
</g>
<g>
</g>
<g>
</g>
<g>
</g>
<g>
</g>
<g>
</g>
<g>
</g>
<g>
</g>
<g>
</g>
<g>
</g>
<g>
</g>
</svg>
