<?xml version="1.0" encoding="iso-8859-1"?>
<!-- Generator: Adobe Illustrator 16.0.0, SVG Export Plug-In . SVG Version: 6.00 Build 0)  -->
<!DOCTYPE svg PUBLIC "-//W3C//DTD SVG 1.1//EN" "http://www.w3.org/Graphics/SVG/1.1/DTD/svg11.dtd">
<svg version="1.1" id="Capa_1" xmlns="http://www.w3.org/2000/svg" xmlns:xlink="http://www.w3.org/1999/xlink" x="0px" y="0px"
	 width="44.74px" height="44.74px" viewBox="0 0 44.74 44.74" style="enable-background:new 0 0 44.74 44.74;" xml:space="preserve"
	>
<g>
	<g>
		<ellipse cx="22.371" cy="30.805" rx="2.5" ry="1"/>
		<path d="M41.466,23.007v-8.91c0-6.526,0.012-10.321-4.392-11.35l-1.628-2.35c-0.367-0.526-1.225-0.527-1.592,0l-1.252,1.807
			l-1.252-1.807c-0.367-0.526-1.223-0.527-1.59,0l-1.25,1.807l-1.25-1.809c-0.367-0.526-1.224-0.527-1.591,0l-1.254,1.807
			l-1.25-1.807c-0.367-0.526-1.223-0.527-1.59,0l-1.254,1.807l-1.25-1.808c-0.367-0.526-1.223-0.527-1.59,0l-1.254,1.808
			l-1.25-1.807c-0.367-0.526-1.224-0.527-1.59,0l-1.252,1.807l-1.252-1.808c-0.357-0.512-1.234-0.512-1.591,0L7.687,2.713
			c-4.512,0.982-4.412,4.789-4.412,11.38v8.916c-1.461,1.202-2.405,3.069-2.405,5.168c0,2.969,1.885,5.482,4.463,6.291
			C8.596,40.709,15.139,44.74,22.4,44.74c7.27,0,13.822-4.041,17.08-10.295c2.539-0.832,4.391-3.327,4.391-6.268
			C43.871,26.081,42.931,24.208,41.466,23.007z M37.629,30.742c-0.291,0-0.563-0.066-0.817-0.183
			c-2.039,5.918-7.713,10.183-14.407,10.183c-6.703,0-12.384-4.272-14.416-10.201c-0.269,0.129-0.563,0.201-0.873,0.201
			c-1.244,0-2.242-1.146-2.242-2.563c0-1.414,0.996-2.56,2.238-2.562c0.342,0.586,0.733,1.149,1.18,1.688
			c-0.416-1.429-0.646-2.896-0.646-4.354c0-2.372,0.603-4.437,1.649-6.175c0.308-0.48,0.724-1.054,1.231-1.663
			c2.683-3.011,6.981-4.661,11.846-4.661c5.056,0,9.513,1.774,12.164,5.016c0.058,0.07,0.103,0.133,0.151,0.201
			c1.52,1.943,2.408,4.387,2.408,7.283c0,1.458-0.228,2.927-0.644,4.354c0.444-0.537,0.838-1.102,1.181-1.688
			c1.241,0.003,2.237,1.147,2.237,2.562C39.871,29.595,38.873,30.742,37.629,30.742z"/>
		<circle cx="15.579" cy="24.674" r="2.25"/>
		<circle cx="29.163" cy="24.674" r="2.25"/>
	</g>
</g>
<g>
</g>
<g>
</g>
<g>
</g>
<g>
</g>
<g>
</g>
<g>
</g>
<g>
</g>
<g>
</g>
<g>
</g>
<g>
</g>
<g>
</g>
<g>
</g>
<g>
</g>
<g>
</g>
<g>
</g>
</svg>
