<?xml version="1.0" encoding="iso-8859-1"?>
<!-- Generator: Adobe Illustrator 16.0.0, SVG Export Plug-In . SVG Version: 6.00 Build 0)  -->
<!DOCTYPE svg PUBLIC "-//W3C//DTD SVG 1.1//EN" "http://www.w3.org/Graphics/SVG/1.1/DTD/svg11.dtd">
<svg version="1.1" id="Capa_1" xmlns="http://www.w3.org/2000/svg" xmlns:xlink="http://www.w3.org/1999/xlink" x="0px" y="0px"
	 width="47.593px" height="47.593px" viewBox="0 0 47.593 47.593" style="enable-background:new 0 0 47.593 47.593;"
	 xml:space="preserve">
<g>
	<g>
		<ellipse cx="23.796" cy="33.654" rx="2.5" ry="1"/>
		<path d="M42.89,25.857V3.5V3.333c-0.001,0-0.003,0-0.005,0c-0.101-7.443-4.381-0.094-11.662-0.094H31.14H16.327h-0.083
			c-7.281,0-11.436-7.349-11.537,0.094c-0.002,0-0.003,0-0.005,0V3.5v22.362c-1.462,1.203-2.406,3.071-2.406,5.168
			c0,2.971,1.885,5.484,4.463,6.291c3.261,6.242,9.805,10.271,17.068,10.271c7.269,0,13.821-4.04,17.081-10.295
			c2.539-0.832,4.39-3.327,4.39-6.27C45.296,28.932,44.354,27.06,42.89,25.857z M17.725,17.604c6.04,0,4.978,4.109,6.071,4.109
			c1.188,0,0.031-4.109,6.07-4.109c3.723,0,6.847,3.748,7.77,8.833H9.955C10.879,21.352,14.003,17.604,17.725,17.604z
			 M39.054,33.594c-0.29,0-0.564-0.067-0.818-0.182c-2.039,5.918-7.711,10.182-14.406,10.182c-6.703,0-12.383-4.273-14.415-10.201
			c-0.269,0.129-0.563,0.201-0.874,0.201c-1.244,0-2.242-1.147-2.242-2.563c0-1.314,0.866-2.388,1.988-2.531
			c0.395,0.752,0.87,1.473,1.43,2.146c-0.017-0.057-0.043-0.772-0.043-1.104c0-0.373,0.015-0.74,0.038-1.104h1.319
			c0.565,2.452,3.454,4.313,5.896,4.313c1.334,0,3.51-0.587,3.798-4.313h6.15c0.288,3.728,2.463,4.313,3.798,4.313
			c2.44,0,5.33-1.861,5.896-4.313h1.318c0.021,0.364,0.038,0.731,0.038,1.104c0,0.331-0.026,1.048-0.043,1.104
			c0.56-0.675,1.035-1.396,1.431-2.146c1.121,0.146,1.987,1.217,1.987,2.531C41.296,32.444,40.298,33.594,39.054,33.594z"/>
	</g>
</g>
<g>
</g>
<g>
</g>
<g>
</g>
<g>
</g>
<g>
</g>
<g>
</g>
<g>
</g>
<g>
</g>
<g>
</g>
<g>
</g>
<g>
</g>
<g>
</g>
<g>
</g>
<g>
</g>
<g>
</g>
</svg>
