<?xml version="1.0" encoding="iso-8859-1"?>
<!-- Generator: Adobe Illustrator 16.0.0, SVG Export Plug-In . SVG Version: 6.00 Build 0)  -->
<!DOCTYPE svg PUBLIC "-//W3C//DTD SVG 1.1//EN" "http://www.w3.org/Graphics/SVG/1.1/DTD/svg11.dtd">
<svg version="1.1" id="Capa_1" xmlns="http://www.w3.org/2000/svg" xmlns:xlink="http://www.w3.org/1999/xlink" x="0px" y="0px"
	 width="45.958px" height="45.958px" viewBox="0 0 45.958 45.958" style="enable-background:new 0 0 45.958 45.958;"
	 xml:space="preserve">
<g>
	<g>
		<path d="M22.951,29.623c-1.579,0-2.858,0.51-2.858,1.145c0,0.633,1.279,1.146,2.858,1.146c1.58,0,2.861-0.513,2.861-1.146
			C25.812,30.132,24.531,29.623,22.951,29.623z"/>
		<circle cx="16.216" cy="26.024" r="2.235"/>
		<circle cx="29.687" cy="26.024" r="2.235"/>
		<path d="M41.916,24.351c-0.084-0.793-0.203-1.642-0.36-2.489c1.241-0.563,1.92-1.188,2.633-2.326
			c0.892-1.423-1.75-7.083-6.813-11.811c0.623-0.556,1.021-1.354,1.021-2.254c0-1.676-1.357-3.033-3.035-3.033
			c-1.193,0-2.217,0.695-2.711,1.699c-1.732-1.047-3.625-1.918-5.654-2.504C15.513-1.673,5.13,0.201,3.804,5.814
			C3.038,9.062,3.39,13.337,6.033,17.01c-0.29,0.521-0.447,0.865-0.479,0.938c-0.799,1.756-1.269,4.243-1.494,6.346
			c-1.494,1.195-2.461,3.086-2.461,5.208c0,2.953,1.873,5.456,4.437,6.267c3.241,6.192,9.738,10.19,16.949,10.19
			c7.216,0,13.724-4.01,16.962-10.216c2.525-0.833,4.363-3.316,4.363-6.241C44.308,27.413,43.373,25.55,41.916,24.351z
			 M22.951,39.361c-2.282,0-4.288,0.434-5.454,1.086l1.284-3.899h8.341l1.282,3.899C27.24,39.794,25.234,39.361,22.951,39.361z
			 M38.083,32.043c-0.287,0-0.562-0.064-0.813-0.18c-1.09,3.164-3.233,5.844-6.017,7.647l-1.625-4.935
			c-0.202-0.614-0.776-1.03-1.424-1.03h-10.51c-0.647,0-1.224,0.416-1.425,1.031l-1.613,4.899c-2.762-1.81-4.891-4.479-5.972-7.635
			c-0.267,0.127-0.56,0.197-0.867,0.197c-1.231,0-2.224-1.138-2.224-2.54c0-1.403,0.988-2.539,2.22-2.542
			c0.34,0.582,0.729,1.143,1.171,1.674c-0.412-1.416-0.639-2.871-0.639-4.316c0-2.364,0.603-4.422,1.65-6.152
			c0.125-0.194,0.264-0.399,0.422-0.621c5.307-0.019,11.912,0.919,18.917,2.866c2.865,0.802,5.6,1.715,8.151,2.704
			c0.035,0.395,0.064,0.791,0.064,1.203c0,1.445-0.228,2.9-0.64,4.316c0.441-0.531,0.83-1.092,1.172-1.674
			c1.23,0.003,2.222,1.139,2.222,2.542C40.308,30.904,39.316,32.043,38.083,32.043z"/>
	</g>
</g>
<g>
</g>
<g>
</g>
<g>
</g>
<g>
</g>
<g>
</g>
<g>
</g>
<g>
</g>
<g>
</g>
<g>
</g>
<g>
</g>
<g>
</g>
<g>
</g>
<g>
</g>
<g>
</g>
<g>
</g>
</svg>
