<?xml version="1.0" encoding="iso-8859-1"?>
<!-- Generator: Adobe Illustrator 16.0.0, SVG Export Plug-In . SVG Version: 6.00 Build 0)  -->
<!DOCTYPE svg PUBLIC "-//W3C//DTD SVG 1.1//EN" "http://www.w3.org/Graphics/SVG/1.1/DTD/svg11.dtd">
<svg version="1.1" id="Capa_1" xmlns="http://www.w3.org/2000/svg" xmlns:xlink="http://www.w3.org/1999/xlink" x="0px" y="0px"
	 width="46.167px" height="46.167px" viewBox="0 0 46.167 46.167" style="enable-background:new 0 0 46.167 46.167;"
	 xml:space="preserve">
<g>
	<path d="M25.583,29.942c0,0.554-1.119,1-2.5,1s-2.5-0.446-2.5-1c0-0.553,1.119-1,2.5-1S25.583,29.391,25.583,29.942z
		 M46.167,22.037v11c0,0.552-0.448,1-1,1h-3.5c-0.299,0-0.56-0.14-0.742-0.347c-0.237,0.115-0.479,0.228-0.729,0.311
		c-3.26,6.256-9.813,10.295-17.08,10.295c-7.264,0-13.807-4.027-17.068-10.271c-0.278-0.088-0.545-0.203-0.807-0.33
		c-0.184,0.207-0.442,0.344-0.74,0.344H1c-0.552,0-1-0.448-1-1v-11c0-0.552,0.448-1,1-1h0.126
		C2.597,10.229,11.879,1.872,23.083,1.872c11.205,0,20.487,8.358,21.957,19.166h0.127C45.719,21.037,46.167,21.484,46.167,22.037z
		 M23.083,38.546c1.053,0,1.995,0.193,2.661,0.497l-0.473-2.122h-4.349l-0.487,2.113C21.104,38.735,22.039,38.546,23.083,38.546z
		 M40.583,27.733c0-1.076-0.58-1.996-1.405-2.375c-0.229-0.104-0.478-0.162-0.736-0.176c-0.068,0.116-0.137,0.234-0.211,0.352
		c-0.314,0.486-0.67,0.96-1.064,1.408c0.16-0.519,0.283-1.043,0.385-1.568c0.088-0.443,0.154-0.891,0.197-1.337h-1.031l-0.293,0.735
		l-0.729,3.771c-0.016,0.09-0.045,0.177-0.082,0.257c-0.062,0.131-0.148,0.242-0.256,0.332c-0.115,0.102-0.256,0.174-0.409,0.21
		c-0.075,0.021-0.155,0.029-0.237,0.029c-0.006,0-0.013,0-0.02,0h-7.146c-0.412,0-0.781-0.252-0.934-0.638l-1.835-4.696h-3.384
		l-1.835,4.696c-0.149,0.386-0.52,0.638-0.932,0.638h-7.166c-0.479,0-0.891-0.34-0.982-0.812l-0.875-4.522H8.421
		c0.042,0.446,0.11,0.894,0.196,1.338c0.103,0.524,0.225,1.051,0.385,1.567c-0.396-0.448-0.75-0.922-1.065-1.408
		c-0.074-0.115-0.142-0.233-0.211-0.352c-0.26,0.012-0.508,0.07-0.735,0.176c-0.828,0.379-1.408,1.299-1.408,2.375
		c0,1.416,0.998,2.563,2.242,2.563c0.311,0,0.605-0.071,0.874-0.2c0.271,0.79,0.612,1.551,1.007,2.276
		c2.227,0.786,5.471,2.344,7.012,4.993l0.667-2.895c0.003-0.011,0.008-0.02,0.01-0.029c0.221-0.892,1.019-1.521,1.939-1.521h7.541
		c0.924,0,1.725,0.636,1.939,1.527c0.004,0.014,0.01,0.024,0.014,0.036l0.635,2.854c1.564-2.666,4.855-4.221,7.076-4.996
		c0.385-0.711,0.717-1.454,0.982-2.229c0.254,0.114,0.528,0.182,0.817,0.182C39.585,30.295,40.583,29.149,40.583,27.733z
		 M37.766,22.037c-0.066-1.032-0.257-2.003-0.566-2.902c-2.135,0.664-5.697,1.606-7.246,1.039c-1.074-0.396-2.473-2.243-3.447-3.709
		c0,0.978-0.154,2.031-0.738,2.599c-1.745,1.699-6.353,2.129-10.567,2.129c-2.644,0-5.129-0.169-6.664-0.3
		c-0.063,0.372-0.106,0.753-0.132,1.145L37.766,22.037L37.766,22.037z M40.645,16.057c0.637,1.4,1.063,3.235,1.332,4.98h1.024
		C41.542,11.338,33.18,3.871,23.083,3.871c-10.098,0-18.461,7.468-19.918,17.166h1.088c0.265-1.739,0.688-3.561,1.313-4.937
		c0.14-0.315,2.557-5.625,8.365-8.732c2.431-1.3,5.45-2.217,9.151-2.217c3.697,0,6.727,0.929,9.167,2.24
		C38.018,10.489,40.497,15.737,40.645,16.057z"/>
</g>
<g>
</g>
<g>
</g>
<g>
</g>
<g>
</g>
<g>
</g>
<g>
</g>
<g>
</g>
<g>
</g>
<g>
</g>
<g>
</g>
<g>
</g>
<g>
</g>
<g>
</g>
<g>
</g>
<g>
</g>
</svg>
