<?xml version="1.0" encoding="iso-8859-1"?>
<!-- Generator: Adobe Illustrator 16.0.0, SVG Export Plug-In . SVG Version: 6.00 Build 0)  -->
<!DOCTYPE svg PUBLIC "-//W3C//DTD SVG 1.1//EN" "http://www.w3.org/Graphics/SVG/1.1/DTD/svg11.dtd">
<svg version="1.1" id="Capa_1" xmlns="http://www.w3.org/2000/svg" xmlns:xlink="http://www.w3.org/1999/xlink" x="0px" y="0px"
	 width="47.736px" height="47.736px" viewBox="0 0 47.736 47.736" style="enable-background:new 0 0 47.736 47.736;"
	 xml:space="preserve">
<g>
	<g>
		<ellipse cx="24.099" cy="33.802" rx="2.5" ry="1"/>
		<circle cx="17.307" cy="27.669" r="2.25"/>
		<circle cx="30.891" cy="27.669" r="2.25"/>
		<path d="M43.188,25.999c-0.014-0.131-0.031-0.267-0.047-0.4c0.088-0.561,0.146-1.163,0.172-1.797
			c1.974-1.381,3.116-3.379,2.881-5.509c-0.512-4.608-5.628-8.445-12.1-11.146c-0.108-3.688-3.476-6.816-7.815-7.122
			c-3.105-0.219-5.907,1.065-7.467,3.145c-3.05-0.37-5.888-0.451-8.199-0.2c-5.011,0.545-8.906,3.837-9.097,9.63
			c-0.104,3.157,1.463,5.378,3.721,6.907c-0.476,2.301-0.458,4.546-0.148,6.32c-0.004,0.038-0.01,0.078-0.014,0.116
			c-1.504,1.198-2.478,3.099-2.478,5.231c0,2.969,1.885,5.483,4.463,6.291c3.261,6.241,9.805,10.271,17.068,10.271
			c7.269,0,13.822-4.04,17.081-10.295c2.54-0.832,4.39-3.327,4.39-6.27C45.599,29.075,44.655,27.201,43.188,25.999z M39.356,33.738
			c-0.289,0-0.563-0.067-0.817-0.183c-2.039,5.918-7.712,10.183-14.407,10.183c-6.703,0-12.383-4.272-14.415-10.201
			c-0.269,0.129-0.563,0.201-0.874,0.201c-1.244,0-2.242-1.146-2.242-2.563c0-1.414,0.996-2.561,2.238-2.562
			c0.342,0.586,0.735,1.15,1.18,1.688c-0.416-1.429-0.644-2.896-0.644-4.354c0-1.188,0.166-2.294,0.446-3.329
			c0.113-0.357,0.236-0.677,0.369-0.968c0.49,0.129,0.98,0.247,1.469,0.343c2.54,0.5,9.721,0.792,17.026,0.502
			c1.979,1.426,4.648,2.996,7.603,3.155c0.875,0.047,1.715-0.005,2.52-0.123c0.004,0.142,0.021,0.275,0.021,0.419
			c0,1.458-0.229,2.927-0.645,4.354c0.444-0.536,0.838-1.102,1.181-1.688c1.241,0.002,2.237,1.148,2.237,2.562
			C41.599,32.592,40.601,33.738,39.356,33.738z"/>
	</g>
</g>
<g>
</g>
<g>
</g>
<g>
</g>
<g>
</g>
<g>
</g>
<g>
</g>
<g>
</g>
<g>
</g>
<g>
</g>
<g>
</g>
<g>
</g>
<g>
</g>
<g>
</g>
<g>
</g>
<g>
</g>
</svg>
