<?xml version="1.0" encoding="iso-8859-1"?>
<!-- Generator: Adobe Illustrator 16.0.0, SVG Export Plug-In . SVG Version: 6.00 Build 0)  -->
<!DOCTYPE svg PUBLIC "-//W3C//DTD SVG 1.1//EN" "http://www.w3.org/Graphics/SVG/1.1/DTD/svg11.dtd">
<svg version="1.1" id="Capa_1" xmlns="http://www.w3.org/2000/svg" xmlns:xlink="http://www.w3.org/1999/xlink" x="0px" y="0px"
	 width="43.5px" height="43.5px" viewBox="0 0 43.5 43.5" style="enable-background:new 0 0 43.5 43.5;" xml:space="preserve">
<g>
	<g>
		<ellipse cx="21.75" cy="30.04" rx="2.248" ry="0.899"/>
		<path d="M43.5,18.228c0-0.95-0.007-2.896-5.501-4.2l0.001-11c0-0.771-0.354-1.497-0.962-1.971
			c-0.608-0.476-1.399-0.644-2.146-0.454L21.75,3.9L8.607,0.603C7.859,0.414,7.068,0.582,6.461,1.057
			C5.855,1.531,5.5,2.256,5.5,3.027v11.001C0.007,15.332,0,17.277,0,18.228c0,1.381,1.119,2.5,2.5,2.5h2.07
			c-0.129,0.689-0.229,1.383-0.305,2.04c-1.371,1.154-2.25,2.929-2.25,4.913c0,2.787,1.736,5.157,4.137,5.987
			c3.025,5.66,9,9.307,15.625,9.307c6.631,0,12.616-3.656,15.64-9.329c2.364-0.853,4.067-3.203,4.067-5.965
			c0-1.953-0.854-3.702-2.188-4.859c-0.073-0.67-0.178-1.381-0.312-2.092H41C42.381,20.728,43.5,19.608,43.5,18.228z M32.947,23.354
			c-0.022-0.174-0.076-0.342-0.186-0.484c-0.189-0.246-0.482-0.391-0.795-0.391h-7.5c-0.311,0-0.604,0.145-0.793,0.391
			c-0.107,0.145-0.162,0.312-0.188,0.484h-3.479c-0.022-0.174-0.075-0.342-0.186-0.484c-0.189-0.246-0.482-0.391-0.794-0.391h-7.5
			c-0.311,0-0.604,0.145-0.793,0.391c-0.108,0.145-0.162,0.312-0.186,0.484H8.524c-0.004-0.125-0.016-0.25-0.016-0.375
			c0-0.791,0.084-1.538,0.225-2.25h26.029c0.139,0.714,0.223,1.461,0.223,2.25c0,0.125-0.01,0.25-0.014,0.375H32.947z
			 M35.468,29.983c-0.261,0-0.508-0.061-0.735-0.162c-1.834,5.319-6.935,9.152-12.955,9.152c-6.024,0-11.131-3.842-12.959-9.171
			c-0.241,0.114-0.506,0.181-0.785,0.181c-1.118,0-2.018-1.03-2.018-2.304c0-1.271,0.896-2.302,2.014-2.306
			c0.308,0.527,0.66,1.035,1.062,1.52c-0.194-0.672-0.342-1.354-0.438-2.04h2.213l0.701,2.633c0.117,0.438,0.514,0.742,0.967,0.742
			h5.5c0.453,0,0.85-0.306,0.966-0.742l0.702-2.633h4.102l0.702,2.633c0.116,0.438,0.513,0.742,0.966,0.742h5.5
			c0.453,0,0.851-0.306,0.967-0.742l0.701-2.633h2.213c-0.098,0.686-0.244,1.368-0.438,2.04c0.398-0.481,0.754-0.99,1.062-1.52
			c1.115,0.004,2.014,1.033,2.014,2.306C37.484,28.953,36.586,29.983,35.468,29.983z"/>
	</g>
</g>
<g>
</g>
<g>
</g>
<g>
</g>
<g>
</g>
<g>
</g>
<g>
</g>
<g>
</g>
<g>
</g>
<g>
</g>
<g>
</g>
<g>
</g>
<g>
</g>
<g>
</g>
<g>
</g>
<g>
</g>
</svg>
