<?xml version="1.0" encoding="iso-8859-1"?>
<!-- Generator: Adobe Illustrator 16.0.0, SVG Export Plug-In . SVG Version: 6.00 Build 0)  -->
<!DOCTYPE svg PUBLIC "-//W3C//DTD SVG 1.1//EN" "http://www.w3.org/Graphics/SVG/1.1/DTD/svg11.dtd">
<svg version="1.1" id="Capa_1" xmlns="http://www.w3.org/2000/svg" xmlns:xlink="http://www.w3.org/1999/xlink" x="0px" y="0px"
	 width="47.248px" height="47.247px" viewBox="0 0 47.248 47.247" style="enable-background:new 0 0 47.248 47.247;"
	 xml:space="preserve">
<g>
	<g>
		<ellipse cx="23.621" cy="30.769" rx="2.248" ry="0.899"/>
		<path d="M47.118,16.208c-0.423-0.941-1.604-1.13-3.376-1.13c-1.046,0-2.401,0.078-3.946,0.187L35.724,5.114
			c-0.38-0.948-1.301-1.569-2.32-1.569H13.84c-1.021,0-1.94,0.621-2.32,1.569L7.448,15.265c-1.544-0.108-2.9-0.187-3.946-0.187
			c-1.771,0-2.953,0.188-3.345,1.065c-0.233,0.431-0.206,0.948,0.075,1.419c0.625,1.047,2.919,2.329,6.299,3.437
			c-0.172,0.841-0.303,1.696-0.394,2.497c-1.371,1.156-2.25,2.928-2.25,4.913c0,2.787,1.736,5.159,4.136,5.987
			c3.026,5.66,9,9.306,15.625,9.306c6.631,0,12.617-3.656,15.639-9.328c2.363-0.853,4.067-3.203,4.067-5.965
			c0-1.953-0.854-3.701-2.188-4.859c-0.091-0.82-0.226-1.7-0.403-2.566c3.354-1.104,5.627-2.38,6.249-3.422
			C47.291,17.092,47.319,16.575,47.118,16.208z M37.338,30.713c-0.261,0-0.508-0.061-0.733-0.162
			c-1.833,5.318-6.937,9.152-12.956,9.152c-6.026,0-11.132-3.842-12.959-9.17c-0.242,0.113-0.507,0.18-0.786,0.18
			c-1.118,0-2.016-1.029-2.016-2.305c0-1.271,0.896-2.301,2.012-2.303c0.308,0.524,0.661,1.033,1.061,1.518
			c-0.374-1.285-0.578-2.604-0.578-3.916c0-0.563,0.049-1.099,0.122-1.623c2.07,0.474,4.358,0.865,6.81,1.119
			c-1.048,0.103-1.872,0.979-1.872,2.052c0,1.146,0.93,2.074,2.073,2.074s2.073-0.931,2.073-2.074c0-0.942-0.638-1.732-1.501-1.982
			c1.734,0.157,3.53,0.253,5.379,0.253h0.309c1.851,0,3.647-0.096,5.383-0.253c-0.865,0.249-1.503,1.039-1.503,1.982
			c0,1.146,0.93,2.074,2.073,2.074c1.143,0,2.073-0.931,2.073-2.074c0-1.074-0.825-1.95-1.874-2.053
			c2.45-0.254,4.739-0.646,6.811-1.118c0.071,0.524,0.121,1.061,0.121,1.623c0,1.311-0.204,2.63-0.578,3.916
			c0.4-0.482,0.753-0.99,1.062-1.518c1.114,0.002,2.012,1.031,2.012,2.303C39.355,29.682,38.457,30.713,37.338,30.713z"/>
	</g>
</g>
<g>
</g>
<g>
</g>
<g>
</g>
<g>
</g>
<g>
</g>
<g>
</g>
<g>
</g>
<g>
</g>
<g>
</g>
<g>
</g>
<g>
</g>
<g>
</g>
<g>
</g>
<g>
</g>
<g>
</g>
</svg>
