<?xml version="1.0" encoding="iso-8859-1"?>
<!-- Generator: Adobe Illustrator 16.0.0, SVG Export Plug-In . SVG Version: 6.00 Build 0)  -->
<!DOCTYPE svg PUBLIC "-//W3C//DTD SVG 1.1//EN" "http://www.w3.org/Graphics/SVG/1.1/DTD/svg11.dtd">
<svg version="1.1" id="Capa_1" xmlns="http://www.w3.org/2000/svg" xmlns:xlink="http://www.w3.org/1999/xlink" x="0px" y="0px"
	 width="42.774px" height="42.774px" viewBox="0 0 42.774 42.774" style="enable-background:new 0 0 42.774 42.774;"
	 xml:space="preserve">
<g>
	<g>
		<path d="M39.778,20.178c-0.146-1.34-0.399-2.839-0.779-4.199c2.277-1.534,3.775-4.135,3.775-7.087
			c0-4.717-3.824-8.541-8.541-8.541H8.541C3.824,0.351,0,4.174,0,8.892c0,2.972,1.521,5.587,3.824,7.117
			c-0.365,1.327-0.613,2.793-0.763,4.114c-1.44,1.195-2.366,3.042-2.366,5.117c0,2.902,1.818,5.369,4.323,6.211
			c1.88,3.541,4.864,6.324,8.433,8.006v1.435c0,0.847,0.688,1.533,1.533,1.533h12.805c0.848,0,1.533-0.687,1.533-1.533v-1.407
			c3.604-1.685,6.613-4.488,8.506-8.06c2.469-0.863,4.252-3.31,4.252-6.185C42.078,23.198,41.182,21.373,39.778,20.178z
			 M21.387,34.86c-1.688,0-3.174,0.289-4.167,0.733l0.916-2.781h6.502l0.916,2.781C24.561,35.149,23.075,34.86,21.387,34.86z
			 M35.864,27.669c-0.274,0-0.535-0.064-0.774-0.172c-1.132,3.277-3.439,6.014-6.429,7.729l-1.459-4.426
			c-0.207-0.628-0.793-1.054-1.455-1.054h-8.719c-0.66,0-1.248,0.425-1.455,1.054l-1.449,4.397
			c-2.969-1.722-5.264-4.453-6.385-7.721c-0.254,0.122-0.533,0.19-0.828,0.19c-1.18,0-2.129-1.087-2.129-2.433
			c0-1.342,0.946-2.429,2.125-2.431c0.324,0.558,0.696,1.092,1.119,1.601c-0.218-0.744-0.375-1.5-0.478-2.261
			c1.228-0.797,2.371-2.528,3.008-4.716c0.06-0.198,0.113-0.398,0.162-0.603c0.342-1.428,0.415-2.805,0.265-3.982
			c1.745,1.727,5.744,2.935,10.404,2.935c4.66,0,8.66-1.209,10.404-2.936c-0.148,1.178-0.076,2.555,0.266,3.983
			c0.049,0.205,0.104,0.405,0.162,0.603c0.638,2.188,1.779,3.918,3.008,4.716c-0.104,0.761-0.26,1.517-0.479,2.261
			c0.424-0.509,0.795-1.043,1.119-1.601c1.18,0.002,2.125,1.088,2.125,2.431C37.992,26.577,37.045,27.669,35.864,27.669z"/>
		<ellipse cx="21.387" cy="27.728" rx="2.373" ry="0.949"/>
		<circle cx="14.944" cy="21.91" r="2.171"/>
		<circle cx="27.83" cy="21.91" r="2.171"/>
	</g>
</g>
<g>
</g>
<g>
</g>
<g>
</g>
<g>
</g>
<g>
</g>
<g>
</g>
<g>
</g>
<g>
</g>
<g>
</g>
<g>
</g>
<g>
</g>
<g>
</g>
<g>
</g>
<g>
</g>
<g>
</g>
</svg>
