<?xml version="1.0" encoding="iso-8859-1"?>
<!-- Generator: Adobe Illustrator 16.0.0, SVG Export Plug-In . SVG Version: 6.00 Build 0)  -->
<!DOCTYPE svg PUBLIC "-//W3C//DTD SVG 1.1//EN" "http://www.w3.org/Graphics/SVG/1.1/DTD/svg11.dtd">
<svg version="1.1" id="Capa_1" xmlns="http://www.w3.org/2000/svg" xmlns:xlink="http://www.w3.org/1999/xlink" x="0px" y="0px"
	 width="43px" height="43px" viewBox="0 0 43 43" style="enable-background:new 0 0 43 43;" xml:space="preserve">
<g>
	<g>
		<ellipse cx="21.499" cy="28.887" rx="2.5" ry="1"/>
		<path d="M40.609,21.104c1.199-1.433,1.593-4.356,0.841-7.494c-0.982-4.095-3.538-6.993-5.708-6.473
			c-0.057,0.014-0.107,0.038-0.162,0.056c-1.148-4.365-8.674-6.47-15.887-6.972C10.861-0.397,3.485,5.472,3.19,5.708
			C2.804,6.02,2.705,6.566,2.956,6.994c0.061,0.103,0.45,0.752,1.12,1.681c-1.021,1.171-1.895,2.905-2.382,4.935
			c-0.74,3.084-0.375,5.967,0.778,7.425C0.971,22.234,0,24.131,0,26.263c0,2.969,1.885,5.483,4.463,6.291
			c3.262,6.241,9.806,10.271,17.068,10.271c7.269,0,13.823-4.041,17.081-10.296C41.15,31.696,43,29.203,43,26.262
			C42.999,24.17,42.062,22.307,40.609,21.104z M24.529,38.219c-0.656-0.414-1.771-0.688-3.03-0.688c-1.26,0-2.374,0.272-3.031,0.688
			v-2.812h6.063L24.529,38.219L24.529,38.219z M36.756,28.824c-0.29,0-0.562-0.067-0.816-0.183c-1.271,3.687-3.949,6.729-7.408,8.5
			v-3.736c0-1.104-0.896-2-2-2H16.467c-1.104,0-2,0.896-2,2v3.701c-3.434-1.779-6.094-4.813-7.353-8.484
			C6.845,28.75,6.55,28.823,6.24,28.823c-1.245,0-2.243-1.147-2.243-2.563s0.998-2.562,2.243-2.562c0.023,0,0.045,0.007,0.069,0.008
			c0.006-0.748,0.072-1.662,0.186-2.61c0.847-0.723,1.632-1.832,2.242-3.197c2.26,0.678,4.717,1.189,7.313,1.476
			c7.16,0.787,13.691-0.277,17.929-2.55c0.623,1.805,1.551,3.279,2.576,4.192c0.118,0.975,0.188,1.917,0.192,2.685
			c0.002,0,0.004-0.001,0.006-0.001c1.245,0,2.243,1.146,2.243,2.563S38.001,28.824,36.756,28.824z"/>
		<circle cx="14.707" cy="24.676" r="2.25"/>
		<circle cx="28.291" cy="24.676" r="2.25"/>
	</g>
</g>
<g>
</g>
<g>
</g>
<g>
</g>
<g>
</g>
<g>
</g>
<g>
</g>
<g>
</g>
<g>
</g>
<g>
</g>
<g>
</g>
<g>
</g>
<g>
</g>
<g>
</g>
<g>
</g>
<g>
</g>
</svg>
