<?xml version="1.0" encoding="iso-8859-1"?>
<!-- Generator: Adobe Illustrator 16.0.0, SVG Export Plug-In . SVG Version: 6.00 Build 0)  -->
<!DOCTYPE svg PUBLIC "-//W3C//DTD SVG 1.1//EN" "http://www.w3.org/Graphics/SVG/1.1/DTD/svg11.dtd">
<svg version="1.1" id="Capa_1" xmlns="http://www.w3.org/2000/svg" xmlns:xlink="http://www.w3.org/1999/xlink" x="0px" y="0px"
	 width="44.824px" height="44.824px" viewBox="0 0 44.824 44.824" style="enable-background:new 0 0 44.824 44.824;"
	 xml:space="preserve">
<g>
	<path d="M24.912,27.679c0,0.553-1.119,1-2.5,1s-2.5-0.447-2.5-1c0-0.554,1.119-1,2.5-1S24.912,27.125,24.912,27.679z
		 M43.912,25.054c0,2.939-1.85,5.437-4.389,6.269c-2.161,4.146-5.774,7.312-10.08,8.979v2.523c0,1.104-0.896,2-2,2H17.38
		c-1.104,0-2-0.896-2-2v-2.548c-4.271-1.672-7.854-4.815-10.005-8.933c-2.578-0.807-4.463-3.322-4.463-6.29
		c0-2.062,0.916-3.899,2.335-5.104c-1.293-2.747-1.006-8.765,1.772-12.739c3.896-5.575,11.04-6.035,14.329-5.017
		c0.021-0.027,0.038-0.059,0.061-0.085c2.766-3.277,11.231-2.868,17.194,2.163c5.461,4.608,7.018,12.064,5.119,15.807
		C43.059,21.283,43.912,23.061,43.912,25.054z M37.018,18.472c-2.573,0.173-6.633-1.338-10.582-4.157
		c-2.64-1.884-4.735-4.004-6.043-5.948c-7.066,0.652-12.53,4.738-12.69,11.405H37.12C37.11,19.327,37.075,18.893,37.018,18.472z
		 M26.251,21.771l1.302,3.334h5.658l0.645-3.334H26.251z M10.967,21.771l0.645,3.334h5.658l1.302-3.334H10.967z M25.073,36.779
		L24.6,34.657h-4.347l-0.487,2.113c0.666-0.3,1.602-0.488,2.645-0.488C23.465,36.282,24.406,36.475,25.073,36.779z M39.912,25.054
		c0-1.395-0.969-2.521-2.188-2.556c-0.354,0.584-0.763,1.147-1.23,1.682c0.245-0.792,0.415-1.598,0.521-2.407h-1.121l-0.875,4.523
		c-0.092,0.471-0.504,0.811-0.982,0.811H26.87c-0.412,0-0.782-0.252-0.933-0.636l-1.834-4.698h-3.384l-1.835,4.698
		c-0.15,0.384-0.52,0.636-0.932,0.636h-7.167c-0.479,0-0.891-0.34-0.982-0.811l-0.875-4.523H7.807
		c0.106,0.81,0.276,1.615,0.521,2.407c-0.469-0.533-0.876-1.098-1.231-1.682c-1.218,0.034-2.187,1.163-2.187,2.556
		c0,1.415,0.998,2.563,2.242,2.563c0.311,0,0.605-0.072,0.874-0.201c1.311,3.824,4.145,6.951,7.787,8.695l0.899-3.901
		c0.209-0.907,1.017-1.551,1.949-1.551h7.541c0.937,0,1.749,0.649,1.952,1.564l0.871,3.907c3.656-1.735,6.505-4.864,7.824-8.695
		c0.254,0.114,0.527,0.183,0.817,0.183C38.914,27.615,39.912,26.469,39.912,25.054z"/>
</g>
<g>
</g>
<g>
</g>
<g>
</g>
<g>
</g>
<g>
</g>
<g>
</g>
<g>
</g>
<g>
</g>
<g>
</g>
<g>
</g>
<g>
</g>
<g>
</g>
<g>
</g>
<g>
</g>
<g>
</g>
</svg>
