<?xml version="1.0" encoding="iso-8859-1"?>
<!-- Generator: Adobe Illustrator 16.0.0, SVG Export Plug-In . SVG Version: 6.00 Build 0)  -->
<!DOCTYPE svg PUBLIC "-//W3C//DTD SVG 1.1//EN" "http://www.w3.org/Graphics/SVG/1.1/DTD/svg11.dtd">
<svg version="1.1" id="Capa_1" xmlns="http://www.w3.org/2000/svg" xmlns:xlink="http://www.w3.org/1999/xlink" x="0px" y="0px"
	 width="44.355px" height="44.354px" viewBox="0 0 44.355 44.354" style="enable-background:new 0 0 44.355 44.354;"
	 xml:space="preserve">
<g>
	<g>
		<ellipse cx="22.177" cy="30.418" rx="2.5" ry="1"/>
		<path d="M41.271,22.619V11.646C41.271,3.914,34.512,0,27.177,0H17.094C9.757,0,3.083,3.914,3.083,11.646v10.979
			c-1.463,1.201-2.406,3.07-2.406,5.168c0,2.969,1.887,5.484,4.464,6.291c3.261,6.242,9.806,10.271,17.067,10.271
			c7.269,0,13.821-4.041,17.081-10.295c2.539-0.832,4.389-3.327,4.389-6.268C43.677,25.695,42.734,23.822,41.271,22.619z
			 M37.435,30.355c-0.29,0-0.564-0.066-0.818-0.182c-2.039,5.918-7.711,10.182-14.406,10.182c-6.703,0-12.384-4.271-14.415-10.199
			c-0.27,0.129-0.563,0.199-0.874,0.199c-1.244,0-2.242-1.146-2.242-2.562s0.998-2.563,2.242-2.563c0.022,0,0.045,0.007,0.069,0.009
			c0.002-0.422,0.028-0.902,0.066-1.405c1.323-1.104,2.505-3.148,3.104-5.642c0.226-0.942,0.345-1.863,0.373-2.733l0.125-0.131
			c2.592,2.979,6.779,4.922,11.521,4.922c4.633,0,8.734-1.857,11.34-4.721l0.319,0.278c0.046,0.767,0.159,1.568,0.356,2.385
			c0.607,2.536,1.82,4.611,3.17,5.701c0.035,0.478,0.062,0.937,0.063,1.338c0.003,0,0.005-0.002,0.007-0.002
			c1.244,0,2.242,1.148,2.242,2.564S38.679,30.355,37.435,30.355z"/>
		<circle cx="15.385" cy="26.209" r="2.25"/>
		<circle cx="28.969" cy="26.209" r="2.25"/>
		<path d="M26.982,33.102c-0.188-0.191-0.447-0.301-0.717-0.301h-8.176c-0.27,0-0.528,0.107-0.717,0.301l-1.088,1.117
			c-0.385,0.396-0.377,1.029,0.019,1.414s1.03,0.379,1.414-0.02l0.794-0.812h7.332l0.794,0.812c0.194,0.201,0.456,0.303,0.716,0.303
			c0.252,0,0.504-0.094,0.698-0.283c0.396-0.387,0.403-1.02,0.019-1.414L26.982,33.102z"/>
	</g>
</g>
<g>
</g>
<g>
</g>
<g>
</g>
<g>
</g>
<g>
</g>
<g>
</g>
<g>
</g>
<g>
</g>
<g>
</g>
<g>
</g>
<g>
</g>
<g>
</g>
<g>
</g>
<g>
</g>
<g>
</g>
</svg>
