<?xml version="1.0" encoding="iso-8859-1"?>
<!-- Generator: Adobe Illustrator 16.0.0, SVG Export Plug-In . SVG Version: 6.00 Build 0)  -->
<!DOCTYPE svg PUBLIC "-//W3C//DTD SVG 1.1//EN" "http://www.w3.org/Graphics/SVG/1.1/DTD/svg11.dtd">
<svg version="1.1" id="Capa_1" xmlns="http://www.w3.org/2000/svg" xmlns:xlink="http://www.w3.org/1999/xlink" x="0px" y="0px"
	 width="45.002px" height="45.002px" viewBox="0 0 45.002 45.002" style="enable-background:new 0 0 45.002 45.002;"
	 xml:space="preserve">
<g>
	<path d="M45.002,20.219C44.998,8.62,34.919,0.036,22.491,0.042C10.063,0.048-0.006,8.641,0,20.24
		c0.001,2.325,0.421,4.555,1.171,6.644c-0.109,0.486-0.17,0.993-0.17,1.514c0,2.971,1.887,5.484,4.464,6.291
		c3.261,6.242,9.806,10.271,17.067,10.271c7.269,0,13.82-4.04,17.08-10.295c2.539-0.832,4.39-3.327,4.39-6.268
		c0-0.522-0.06-1.031-0.169-1.521C44.583,24.785,45.003,22.55,45.002,20.219z M25.531,40.354c-0.656-0.414-1.77-0.688-3.03-0.688
		c-1.261,0-2.374,0.273-3.031,0.688v-2.812h6.063L25.531,40.354L25.531,40.354z M37.759,30.96c-0.29,0-0.563-0.066-0.817-0.182
		c-1.271,3.686-3.949,6.729-7.407,8.5v-3.737c0-1.104-0.896-2-2-2H17.47c-1.104,0-2,0.896-2,2v3.702
		c-3.434-1.78-6.094-4.814-7.353-8.485c-0.269,0.129-0.563,0.201-0.874,0.201c-1.244,0-2.242-1.147-2.242-2.563
		s0.998-2.562,2.242-2.562c0.023,0,0.045,0.007,0.068,0.008c0.006-0.766,0.073-1.707,0.193-2.682
		c1.042-0.924,1.984-2.429,2.609-4.272c0.039-0.023,0.074-0.052,0.113-0.076c2.432,2.076,7.01,3.479,12.271,3.479
		c5.261,0,9.841-1.403,12.271-3.479c0.039,0.024,0.073,0.05,0.111,0.074c0.641,1.886,1.609,3.418,2.682,4.337
		c0.114,0.948,0.182,1.863,0.188,2.611c0.003,0,0.005-0.001,0.007-0.001c1.244,0,2.242,1.147,2.242,2.563S39.003,30.96,37.759,30.96
		z M25.001,31.022c0,0.553-1.119,1-2.5,1s-2.5-0.447-2.5-1c0-0.555,1.119-1,2.5-1S25.001,30.47,25.001,31.022z M17.959,26.813
		c0,1.24-1.01,2.25-2.25,2.25s-2.25-1.01-2.25-2.25s1.01-2.25,2.25-2.25S17.959,25.571,17.959,26.813z M31.543,26.813
		c0,1.24-1.01,2.25-2.25,2.25s-2.25-1.01-2.25-2.25s1.01-2.25,2.25-2.25S31.543,25.571,31.543,26.813z"/>
</g>
<g>
</g>
<g>
</g>
<g>
</g>
<g>
</g>
<g>
</g>
<g>
</g>
<g>
</g>
<g>
</g>
<g>
</g>
<g>
</g>
<g>
</g>
<g>
</g>
<g>
</g>
<g>
</g>
<g>
</g>
</svg>
