<?xml version="1.0" encoding="iso-8859-1"?>
<!-- Generator: Adobe Illustrator 16.0.0, SVG Export Plug-In . SVG Version: 6.00 Build 0)  -->
<!DOCTYPE svg PUBLIC "-//W3C//DTD SVG 1.1//EN" "http://www.w3.org/Graphics/SVG/1.1/DTD/svg11.dtd">
<svg version="1.1" id="Capa_1" xmlns="http://www.w3.org/2000/svg" xmlns:xlink="http://www.w3.org/1999/xlink" x="0px" y="0px"
	 width="43.845px" height="43.845px" viewBox="0 0 43.845 43.845" style="enable-background:new 0 0 43.845 43.845;"
	 xml:space="preserve">
<g>
	<path d="M24.552,29.491c0,0.553-1.117,1-2.5,1c-1.381,0-2.5-0.447-2.5-1s1.119-1,2.5-1C23.435,28.491,24.552,28.939,24.552,29.491z
		 M43.552,27.282c0,2.938-1.848,5.436-4.389,6.268c-3.258,6.255-9.811,10.295-17.08,10.295c-7.263,0-13.807-4.028-17.068-10.271
		c-2.578-0.807-4.463-3.321-4.463-6.291c0-1.815,0.71-3.457,1.848-4.646c-0.8-0.819-1.407-1.866-1.761-3.094
		c-0.599-2.077-0.416-4.411,0.516-6.572c1.113-2.586,3.164-4.53,5.466-5.335c0.52-5.757,10.248-7.822,16.682-7.622
		c9.093,0.284,11.224,4.418,11.602,7.281c2.916,0.326,5.685,2.511,7.047,5.676c0.931,2.161,1.114,4.495,0.517,6.572
		c-0.283,0.983-0.731,1.851-1.309,2.579C42.614,23.321,43.552,25.191,43.552,27.282z M24.714,38.592L24.24,36.47h-4.346
		l-0.487,2.113c0.666-0.299,1.602-0.488,2.645-0.488C23.106,38.095,24.046,38.288,24.714,38.592z M39.552,27.282
		c0-1.416-0.998-2.563-2.24-2.563c-0.001,0-0.004,0-0.006,0.001c-0.34,0.547-0.729,1.074-1.17,1.575
		c0.277-0.896,0.461-1.81,0.561-2.726c-0.001-0.015-0.003-0.026-0.004-0.039c-1.303-0.694-2.641-2.192-3.561-4.166
		c-0.959-2.059-1.233-4.133-0.864-5.588c-3.699,2.346-9.964,1.232-9.964,1.232c-3.75,0.25-4.75,5-4.75,5
		c-1.739-0.387-3.55-1.596-5.122-2.934c-0.169,0.744-0.43,1.517-0.79,2.287c-1.073,2.302-2.713,3.957-4.202,4.442
		c0.105,0.836,0.278,1.67,0.531,2.487c-0.441-0.501-0.831-1.028-1.17-1.575c-0.002,0-0.003-0.001-0.005-0.001
		c-1.244,0-2.242,1.147-2.242,2.563s0.998,2.562,2.242,2.562c0.311,0,0.605-0.071,0.874-0.201c0.271,0.791,0.612,1.552,1.007,2.277
		c2.226,0.786,5.47,2.344,7.012,4.993l0.667-2.895c0.209-0.907,1.017-1.552,1.949-1.552h7.541c0.938,0,1.75,0.649,1.953,1.565
		l0.636,2.853c1.565-2.665,4.854-4.22,7.075-4.995c0.386-0.711,0.718-1.455,0.983-2.229c0.254,0.113,0.528,0.182,0.817,0.182
		C38.554,29.845,39.552,28.696,39.552,27.282z M15.26,21.761c-1.241,0-2.25,1.01-2.25,2.25c0,1.24,1.009,2.25,2.25,2.25
		c1.241,0,2.25-1.01,2.25-2.25C17.51,22.771,16.502,21.761,15.26,21.761z M28.845,21.761c-1.24,0-2.25,1.01-2.25,2.25
		c0,1.24,1.01,2.25,2.25,2.25s2.25-1.01,2.25-2.25C31.095,22.771,30.085,21.761,28.845,21.761z"/>
</g>
<g>
</g>
<g>
</g>
<g>
</g>
<g>
</g>
<g>
</g>
<g>
</g>
<g>
</g>
<g>
</g>
<g>
</g>
<g>
</g>
<g>
</g>
<g>
</g>
<g>
</g>
<g>
</g>
<g>
</g>
</svg>
