<?xml version="1.0" encoding="iso-8859-1"?>
<!-- Generator: Adobe Illustrator 16.0.0, SVG Export Plug-In . SVG Version: 6.00 Build 0)  -->
<!DOCTYPE svg PUBLIC "-//W3C//DTD SVG 1.1//EN" "http://www.w3.org/Graphics/SVG/1.1/DTD/svg11.dtd">
<svg version="1.1" id="Capa_1" xmlns="http://www.w3.org/2000/svg" xmlns:xlink="http://www.w3.org/1999/xlink" x="0px" y="0px"
	 width="46.403px" height="46.403px" viewBox="0 0 46.403 46.403" style="enable-background:new 0 0 46.403 46.403;"
	 xml:space="preserve">
<g>
	<g>
		<ellipse cx="23.202" cy="31.608" rx="2.5" ry="1"/>
		<circle cx="16.409" cy="27.399" r="2.25"/>
		<circle cx="29.992" cy="27.399" r="2.25"/>
		<path d="M45.162,13.301c-1.815-3.157-5.201-4.841-8.606-4.652c-2.011-4.545-7.224-7.792-13.354-7.792
			c-6.131,0-11.345,3.246-13.354,7.791C6.443,8.46,3.057,10.143,1.243,13.3c-2.234,3.884-1.359,8.699,1.842,11.579
			c-0.86,1.125-1.381,2.553-1.381,4.104c0,2.969,1.885,5.483,4.463,6.291c0.303,0.577,0.642,1.128,0.996,1.665H7.131
			c3.148,4.764,8.334,7.928,14.158,8.503c0.074,0.007,0.147,0.014,0.222,0.021c0.562,0.051,1.123,0.083,1.692,0.083
			c0.006,0,0.012,0,0.02,0c0.004,0,0.008,0,0.012,0c0.02,0,0.039-0.003,0.061-0.003c0.512-0.002,1.02-0.029,1.524-0.07
			c0.155-0.015,0.312-0.027,0.466-0.045c0.492-0.054,0.98-0.119,1.465-0.209c0.053-0.011,0.104-0.02,0.155-0.029
			c0.487-0.096,0.968-0.213,1.442-0.344c0.146-0.041,0.291-0.084,0.438-0.127c0.418-0.125,0.828-0.263,1.232-0.416
			c0.071-0.025,0.146-0.045,0.217-0.072v-0.004c0.432-0.168,0.854-0.354,1.271-0.553v0.012c0.197-0.094,0.387-0.202,0.58-0.303
			c0.142-0.072,0.283-0.145,0.422-0.221c0.281-0.154,0.56-0.314,0.832-0.482c0.059-0.035,0.115-0.071,0.174-0.108
			c2.846-1.782,5.218-4.279,6.801-7.318c2.539-0.832,4.39-3.327,4.39-6.267c0-1.555-0.52-2.981-1.38-4.106
			C46.52,21.998,47.394,17.183,45.162,13.301z M26.23,40.941c-0.656-0.416-1.771-0.688-3.03-0.688c-1.262,0-2.375,0.273-3.031,0.688
			v-2.813h6.062L26.23,40.941L26.23,40.941z M38.457,31.546c-0.289,0-0.563-0.065-0.817-0.182c-0.729,2.112-1.929,4.005-3.468,5.575
			h-0.02c-1.135,1.162-2.463,2.133-3.923,2.889v-3.7c0-1.104-0.896-2-2-2H18.167c-1.104,0-2,0.896-2,2v3.699
			c-0.438-0.226-0.86-0.474-1.271-0.737v-0.006c-2.814-1.824-4.982-4.535-6.081-7.738c-0.269,0.129-0.563,0.2-0.874,0.2
			c-1.244,0-2.242-1.146-2.242-2.562s0.998-2.563,2.242-2.563c0.023,0,0.045,0.008,0.069,0.008c0.003-0.42,0.028-0.901,0.067-1.403
			c1.322-1.104,2.504-3.148,3.103-5.643c0.015-0.058,0.022-0.115,0.037-0.174c2.534,3.294,6.948,5.482,11.981,5.482
			c5.03,0,9.443-2.188,11.979-5.48c0.013,0.059,0.022,0.114,0.036,0.172c0.607,2.536,1.82,4.611,3.171,5.701
			c0.034,0.479,0.062,0.938,0.063,1.338c0.002,0,0.004-0.001,0.006-0.001c1.244,0,2.242,1.147,2.242,2.563
			S39.703,31.546,38.457,31.546z"/>
	</g>
</g>
<g>
</g>
<g>
</g>
<g>
</g>
<g>
</g>
<g>
</g>
<g>
</g>
<g>
</g>
<g>
</g>
<g>
</g>
<g>
</g>
<g>
</g>
<g>
</g>
<g>
</g>
<g>
</g>
<g>
</g>
</svg>
