<?xml version="1.0" encoding="iso-8859-1"?>
<!-- Generator: Adobe Illustrator 16.0.0, SVG Export Plug-In . SVG Version: 6.00 Build 0)  -->
<!DOCTYPE svg PUBLIC "-//W3C//DTD SVG 1.1//EN" "http://www.w3.org/Graphics/SVG/1.1/DTD/svg11.dtd">
<svg version="1.1" id="Capa_1" xmlns="http://www.w3.org/2000/svg" xmlns:xlink="http://www.w3.org/1999/xlink" x="0px" y="0px"
	 width="44.757px" height="44.757px" viewBox="0 0 44.757 44.757" style="enable-background:new 0 0 44.757 44.757;"
	 xml:space="preserve">
<g>
	<path d="M25.238,29.566c0,0.631-1.28,1.144-2.858,1.144c-1.58,0-2.859-0.513-2.859-1.144c0-0.637,1.279-1.146,2.859-1.146
		C23.958,28.42,25.238,28.93,25.238,29.566z M15.644,22.586c-1.231,0-2.234,1.002-2.234,2.235c0,1.23,1.003,2.233,2.234,2.233
		c1.233,0,2.236-1.003,2.236-2.233C17.879,23.589,16.876,22.586,15.644,22.586z M29.115,22.586c-1.232,0-2.235,1.002-2.235,2.235
		c0,1.23,1.003,2.233,2.235,2.233c1.231,0,2.234-1.003,2.234-2.233C31.351,23.589,30.349,22.586,29.115,22.586z M43.734,28.3
		c0,2.927-1.838,5.407-4.361,6.241c-3.24,6.207-9.748,10.216-16.964,10.216c-7.211,0-13.709-3.998-16.949-10.19
		c-2.563-0.811-4.436-3.313-4.436-6.267c0-2.122,0.967-4.012,2.461-5.208c0.209-1.943,0.631-4.21,1.322-5.928l-3.218-1.994
		c-0.441-0.273-0.71-0.756-0.71-1.275s0.269-1.002,0.71-1.274l20-12.396c0.484-0.299,1.096-0.299,1.58,0l20,12.396
		c0.44,0.272,0.71,0.756,0.71,1.274c0,0.52-0.27,1.002-0.71,1.275L40,17.133c0.71,1.761,1.135,4.06,1.342,6.015
		C42.798,24.347,43.734,26.21,43.734,28.3z M8.508,18.875H36.25c-0.108-0.299-0.229-0.592-0.36-0.875H8.87
		C8.736,18.282,8.617,18.576,8.508,18.875z M27.982,39.698l-1.435-4.354h-8.34l-1.427,4.334c1.738,0.691,3.636,1.078,5.627,1.078
		C24.38,40.757,26.258,40.376,27.982,39.698z M39.734,28.3c0-1.401-0.987-2.538-2.221-2.541c-0.34,0.581-0.729,1.142-1.171,1.675
		c0.413-1.416,0.638-2.873,0.638-4.318c0-0.844-0.09-1.644-0.233-2.409c-3.308,1.379-10.207,1.795-14.367,1.795
		s-11.061-0.416-14.367-1.795c-0.146,0.767-0.234,1.565-0.234,2.409c0,1.445,0.226,2.902,0.638,4.318
		c-0.44-0.533-0.831-1.094-1.171-1.676C6.015,25.76,5.024,26.898,5.024,28.3c0,1.403,0.99,2.54,2.224,2.54
		c0.309,0,0.603-0.07,0.866-0.197c1.082,3.153,3.211,5.825,5.973,7.635l1.613-4.899c0.201-0.615,0.777-1.031,1.425-1.031h10.51
		c0.647,0,1.222,0.415,1.425,1.03l1.627,4.935c2.779-1.807,4.924-4.483,6.017-7.646c0.25,0.113,0.522,0.179,0.812,0.179
		C38.745,30.84,39.734,29.702,39.734,28.3z"/>
</g>
<g>
</g>
<g>
</g>
<g>
</g>
<g>
</g>
<g>
</g>
<g>
</g>
<g>
</g>
<g>
</g>
<g>
</g>
<g>
</g>
<g>
</g>
<g>
</g>
<g>
</g>
<g>
</g>
<g>
</g>
</svg>
