<?xml version="1.0" encoding="iso-8859-1"?>
<!-- Generator: Adobe Illustrator 16.0.0, SVG Export Plug-In . SVG Version: 6.00 Build 0)  -->
<!DOCTYPE svg PUBLIC "-//W3C//DTD SVG 1.1//EN" "http://www.w3.org/Graphics/SVG/1.1/DTD/svg11.dtd">
<svg version="1.1" id="Capa_1" xmlns="http://www.w3.org/2000/svg" xmlns:xlink="http://www.w3.org/1999/xlink" x="0px" y="0px"
	 width="47.205px" height="47.205px" viewBox="0 0 47.205 47.205" style="enable-background:new 0 0 47.205 47.205;"
	 xml:space="preserve">
<g>
	<path d="M45.064,28.552c-0.12-0.16-0.322-0.232-0.521-0.188c-0.193,0.047-0.342,0.205-0.375,0.403
		c-0.049,0.29-0.101,0.581-0.172,0.87c-0.326,1.292-0.869,2.479-1.58,3.538c-0.021-3.539-0.043-6.764-0.043-6.809
		c0-10.222-8.438-18.537-18.811-18.537c-0.88,0-1.738,0.08-2.586,0.195l-4.41-6.224c-0.233-0.33-0.64-0.484-1.038-0.397
		c-0.395,0.09-0.695,0.408-0.764,0.809l-0.77,4.494L9.279,5.901C8.735,5.811,8.219,6.172,8.127,6.718l-0.808,4.717L2.604,10.63
		C2.208,10.56,1.807,10.74,1.589,11.08c-0.215,0.342-0.205,0.778,0.025,1.108l4.727,6.751c-1.016,2.28-1.59,4.794-1.59,7.441v6.738
		c-0.692-1.043-1.222-2.215-1.541-3.481c-0.072-0.289-0.123-0.58-0.172-0.87c-0.033-0.198-0.182-0.356-0.377-0.404
		c-0.195-0.045-0.398,0.027-0.519,0.188c-1.949,2.622-2.608,5.938-1.813,9.097c1.213,4.813,5.521,8.174,10.479,8.174
		c0.889,0,1.779-0.11,2.648-0.329c1.39-0.352,2.654-0.964,3.758-1.772c1.988,0.831,4.158,1.286,6.412,1.286
		c2.24,0,4.399-0.451,6.378-1.273c1.101,0.806,2.358,1.411,3.74,1.761c0.869,0.221,1.762,0.332,2.649,0.332c0.001,0,0.001,0,0.001,0
		c4.956,0,9.266-3.361,10.477-8.176C47.673,34.492,47.014,31.174,45.064,28.552z M31.735,38.058
		c-0.307,0.259-0.63,0.498-0.962,0.729c-0.066,0.047-0.137,0.09-0.205,0.135c-0.312,0.205-0.627,0.396-0.955,0.574
		c-0.023,0.014-0.049,0.026-0.072,0.041c-0.771,0.406-1.592,0.736-2.449,0.98l0,0c-1.1,0.313-2.258,0.489-3.46,0.489
		c-1.219,0-2.392-0.182-3.504-0.502l0,0c-0.848-0.244-1.657-0.573-2.42-0.979c-0.031-0.017-0.063-0.034-0.094-0.052
		c-0.318-0.173-0.627-0.361-0.928-0.56c-0.071-0.047-0.143-0.095-0.213-0.144c-0.328-0.227-0.648-0.464-0.952-0.721l0,0
		c-1.692-1.428-2.993-3.295-3.722-5.42c-0.221,0.104-0.463,0.164-0.719,0.164c-1.021,0-1.84-0.941-1.84-2.104
		c0-1.16,0.817-2.102,1.838-2.104c0.279,0.479,0.604,0.945,0.969,1.386c-0.289-0.992-0.459-2.008-0.508-3.021
		c0.942-0.955,1.764-2.485,2.201-4.311c0.033-0.144,0.062-0.285,0.09-0.429c2.055,1.701,4.723,3.035,7.569,2.156
		c0.396-0.121,0.675-0.473,0.703-0.884l0.097-1.343c1.209,0.144,3.027,0.563,4.146,1.591c0.802,0.739,1.984,1.125,3.242,1.125
		c0.789,0,1.609-0.15,2.383-0.465c0.635-0.257,1.197-0.614,1.691-1.042c0.465,1.512,1.189,2.773,2.008,3.603
		c-0.049,1.014-0.219,2.027-0.508,3.021c0.365-0.439,0.688-0.904,0.969-1.386c1.021,0.002,1.839,0.942,1.839,2.104
		s-0.819,2.104-1.841,2.104c-0.237,0-0.465-0.055-0.672-0.148C34.727,34.771,33.425,36.633,31.735,38.058L31.735,38.058z
		 M25.657,32.85c0,0.453-0.918,0.82-2.052,0.82s-2.052-0.367-2.052-0.82c0-0.454,0.918-0.821,2.052-0.821
		S25.657,32.396,25.657,32.85z M19.966,27.817c0,1.067-0.869,1.937-1.938,1.937c-1.069,0-1.938-0.867-1.938-1.937
		c0-1.068,0.869-1.938,1.938-1.938C19.098,25.879,19.966,26.749,19.966,27.817z M31.117,27.817c0,1.067-0.869,1.937-1.937,1.937
		c-1.068,0-1.938-0.867-1.938-1.937c0-1.068,0.868-1.938,1.938-1.938C30.248,25.879,31.117,26.749,31.117,27.817z"/>
</g>
<g>
</g>
<g>
</g>
<g>
</g>
<g>
</g>
<g>
</g>
<g>
</g>
<g>
</g>
<g>
</g>
<g>
</g>
<g>
</g>
<g>
</g>
<g>
</g>
<g>
</g>
<g>
</g>
<g>
</g>
</svg>
