<?xml version="1.0" encoding="iso-8859-1"?>
<!-- Generator: Adobe Illustrator 16.0.0, SVG Export Plug-In . SVG Version: 6.00 Build 0)  -->
<!DOCTYPE svg PUBLIC "-//W3C//DTD SVG 1.1//EN" "http://www.w3.org/Graphics/SVG/1.1/DTD/svg11.dtd">
<svg version="1.1" id="Capa_1" xmlns="http://www.w3.org/2000/svg" xmlns:xlink="http://www.w3.org/1999/xlink" x="0px" y="0px"
	 width="47.249px" height="47.249px" viewBox="0 0 47.249 47.249" style="enable-background:new 0 0 47.249 47.249;"
	 xml:space="preserve">
<g>
	<path d="M25.872,30.77c0,0.496-1.006,0.897-2.248,0.897s-2.248-0.401-2.248-0.897c0-0.498,1.007-0.898,2.248-0.898
		S25.872,30.27,25.872,30.77z M23.619,15.527c0.051,0,0.102,0,0.15,0c6.879,0,12.229-1.212,15.278-2.122l-3.324-8.291
		c-0.381-0.948-1.3-1.569-2.32-1.569H13.839c-1.021,0-1.939,0.621-2.32,1.569l-3.325,8.29C11.27,14.316,16.682,15.521,23.619,15.527
		z M47.012,17.563c-0.621,1.042-2.896,2.317-6.248,3.421c0.18,0.867,0.312,1.747,0.403,2.566c1.336,1.157,2.188,2.906,2.188,4.859
		c0,2.761-1.703,5.112-4.066,5.964c-3.022,5.673-9.01,9.33-15.641,9.33c-6.625,0-12.6-3.646-15.625-9.307
		c-2.398-0.83-4.137-3.199-4.137-5.987c0-1.984,0.879-3.759,2.252-4.913c0.09-0.8,0.221-1.655,0.394-2.496
		c-3.382-1.107-5.675-2.39-6.3-3.437c-0.28-0.471-0.31-0.988-0.075-1.419c0.392-0.876,1.573-1.065,3.345-1.065
		c1.043,0,2.393,0.078,3.934,0.186c3.141,0.952,8.772,2.262,16.021,2.262c0.106,0,0.215,0,0.319,0c7.258,0,12.894-1.31,16.033-2.262
		c1.541-0.108,2.892-0.186,3.935-0.186c1.771,0,2.952,0.189,3.377,1.13C47.319,16.576,47.292,17.092,47.012,17.563z M39.354,28.41
		c0-1.271-0.896-2.302-2.014-2.304c-0.308,0.526-0.66,1.035-1.062,1.518c0.373-1.284,0.578-2.604,0.578-3.915
		c0-0.563-0.051-1.099-0.121-1.623c-2.071,0.473-4.361,0.865-6.813,1.119c1.051,0.101,1.876,0.979,1.876,2.053
		c0,1.144-0.93,2.073-2.071,2.073c-1.145,0-2.074-0.932-2.074-2.073c0-0.944,0.64-1.735,1.506-1.984
		c-1.735,0.157-3.533,0.253-5.385,0.253h-0.312c-1.85,0-3.646-0.096-5.379-0.253c0.865,0.25,1.503,1.042,1.503,1.983
		c0,1.145-0.93,2.073-2.072,2.073c-1.144,0-2.074-0.931-2.074-2.073c0-1.074,0.826-1.951,1.875-2.053
		c-2.451-0.253-4.741-0.645-6.813-1.119c-0.07,0.524-0.121,1.061-0.121,1.623c0,1.312,0.204,2.631,0.578,3.915
		c-0.4-0.481-0.754-0.99-1.063-1.519c-1.115,0.002-2.012,1.033-2.012,2.305s0.897,2.304,2.016,2.304c0.279,0,0.545-0.063,0.787-0.18
		c1.826,5.327,6.934,9.17,12.959,9.17c6.021,0,11.121-3.833,12.955-9.152c0.228,0.104,0.475,0.162,0.733,0.162
		C38.457,30.713,39.354,29.684,39.354,28.41z M23.625,34.375c2.087,0,3.837,1.035,4.455,2.458c0.15-0.352,0.254-0.716,0.254-1.104
		c0-1.967-2.108-3.563-4.708-3.563s-4.709,1.595-4.709,3.563c0,0.389,0.104,0.754,0.254,1.104
		C19.787,35.41,21.537,34.375,23.625,34.375z"/>
</g>
<g>
</g>
<g>
</g>
<g>
</g>
<g>
</g>
<g>
</g>
<g>
</g>
<g>
</g>
<g>
</g>
<g>
</g>
<g>
</g>
<g>
</g>
<g>
</g>
<g>
</g>
<g>
</g>
<g>
</g>
</svg>
