<?xml version="1.0" encoding="iso-8859-1"?>
<!-- Generator: Adobe Illustrator 16.0.0, SVG Export Plug-In . SVG Version: 6.00 Build 0)  -->
<!DOCTYPE svg PUBLIC "-//W3C//DTD SVG 1.1//EN" "http://www.w3.org/Graphics/SVG/1.1/DTD/svg11.dtd">
<svg version="1.1" id="Capa_1" xmlns="http://www.w3.org/2000/svg" xmlns:xlink="http://www.w3.org/1999/xlink" x="0px" y="0px"
	 width="46.875px" height="46.875px" viewBox="0 0 46.875 46.875" style="enable-background:new 0 0 46.875 46.875;"
	 xml:space="preserve">
<g>
	<path d="M44.195,9.376c-0.542-0.428-1.304-0.432-1.849-0.01l-3.887,3.006L24.414,0.359c-0.563-0.479-1.39-0.479-1.951,0
		L8.415,12.374L4.528,9.368C3.982,8.946,3.22,8.951,2.68,9.378c-0.541,0.428-0.72,1.17-0.434,1.797l4.375,9.606
		c-0.605,1.583-0.98,3.606-1.175,5.362c-1.415,1.171-2.325,2.983-2.325,5.019c0,2.603,1.497,4.83,3.628,5.825v3.207
		c-0.551,0.286-0.938,1.029-0.938,1.931c0,1.157,0.631,2.063,1.438,2.063s1.438-0.906,1.438-2.063c0-0.9-0.386-1.645-0.938-1.931
		V37.92c3.209,5.468,9.148,8.955,15.717,8.955c6.525,0,12.435-3.445,15.659-8.854v2.174c-0.552,0.286-0.938,1.029-0.938,1.932
		c0,1.156,0.631,2.062,1.438,2.062c0.808,0,1.438-0.906,1.438-2.062c0-0.901-0.387-1.646-0.938-1.932v-3.208
		c2.131-0.995,3.628-3.223,3.628-5.823c0-2.002-0.882-3.791-2.26-4.963c-0.195-1.781-0.578-3.848-1.205-5.474l4.342-9.55
		C44.916,10.546,44.735,9.807,44.195,9.376z M37.664,33.549c-0.271,0-0.525-0.062-0.764-0.168c-1.9,5.519-7.189,9.492-13.433,9.492
		c-6.25,0-11.545-3.982-13.44-9.511c-0.249,0.121-0.525,0.188-0.814,0.188c-1.16,0-2.09-1.07-2.09-2.391
		c0-1.316,0.928-2.386,2.086-2.389c0.319,0.546,0.685,1.072,1.1,1.572c-0.388-1.331-0.6-2.7-0.6-4.061
		c0-1.492,0.262-2.852,0.726-4.08c2.568,1.269,8.798,3.744,15.837,2.11c0.191-0.045,0.339-0.198,0.377-0.392
		c0.038-0.193-0.041-0.391-0.202-0.505c-0.015-0.011-1.161-0.834-1.986-2.085c2.302,1.283,6.995,3.565,11.271,3.565
		c0.455,0,0.904-0.027,1.347-0.083c0.057,0.476,0.09,0.962,0.09,1.467c0,1.359-0.212,2.729-0.601,4.062
		c0.415-0.5,0.781-1.026,1.101-1.572c1.158,0.002,2.086,1.07,2.086,2.389C39.753,32.48,38.823,33.549,37.664,33.549z M25.769,33.609
		c0,0.516-1.044,0.932-2.331,0.932s-2.331-0.416-2.331-0.932s1.044-0.933,2.331-0.933S25.769,33.094,25.769,33.609z M19.236,27.893
		c0,1.175-0.957,2.132-2.132,2.132s-2.132-0.957-2.132-2.132s0.957-2.131,2.132-2.131S19.236,26.715,19.236,27.893z M31.902,27.893
		c0,1.175-0.957,2.132-2.132,2.132s-2.132-0.957-2.132-2.132s0.957-2.131,2.132-2.131S31.902,26.715,31.902,27.893z"/>
</g>
<g>
</g>
<g>
</g>
<g>
</g>
<g>
</g>
<g>
</g>
<g>
</g>
<g>
</g>
<g>
</g>
<g>
</g>
<g>
</g>
<g>
</g>
<g>
</g>
<g>
</g>
<g>
</g>
<g>
</g>
</svg>
