<?xml version="1.0" encoding="iso-8859-1"?>
<!-- Generator: Adobe Illustrator 16.0.0, SVG Export Plug-In . SVG Version: 6.00 Build 0)  -->
<!DOCTYPE svg PUBLIC "-//W3C//DTD SVG 1.1//EN" "http://www.w3.org/Graphics/SVG/1.1/DTD/svg11.dtd">
<svg version="1.1" id="Capa_1" xmlns="http://www.w3.org/2000/svg" xmlns:xlink="http://www.w3.org/1999/xlink" x="0px" y="0px"
	 width="48.598px" height="48.598px" viewBox="0 0 48.598 48.598" style="enable-background:new 0 0 48.598 48.598;"
	 xml:space="preserve">
<g>
	<path d="M45.299,24.721c0-5.459-3.576-9.942-8.104-10.374c-0.457-2.096-2.53-3.85-5.602-4.917
		c-0.271-2.311-1.936-4.259-4.234-5.194c-0.656-2.14-1.824-3.62-1.893-3.705c-0.568-0.708-1.768-0.708-2.336,0
		c-0.068,0.085-1.236,1.564-1.892,3.705c-2.299,0.935-3.963,2.883-4.234,5.194c-3.07,1.068-5.146,2.821-5.601,4.917
		c-4.529,0.432-8.105,4.915-8.105,10.374c0,2.309,0.646,4.435,1.724,6.161c-0.296,0.745-0.468,1.558-0.468,2.413
		c0,2.79,1.737,5.162,4.138,5.991c3.027,5.665,9.006,9.312,15.635,9.312c6.635,0,12.621-3.658,15.646-9.336
		c2.365-0.851,4.068-3.204,4.068-5.967c0-0.855-0.173-1.668-0.468-2.414C44.652,29.154,45.299,27.028,45.299,24.721z M38.025,35.601
		c-0.262,0-0.508-0.061-0.735-0.163c-1.834,5.323-6.938,9.16-12.962,9.16c-6.031,0-11.141-3.845-12.969-9.178
		c-0.241,0.116-0.507,0.181-0.786,0.181c-0.779,0-1.442-0.505-1.779-1.235c-0.147-0.321-0.238-0.683-0.238-1.068
		c0-0.25,0.043-0.488,0.108-0.713c0.148-0.521,0.448-0.957,0.847-1.24c0.308-0.218,0.668-0.35,1.059-0.351
		c0.213,0.364,0.453,0.717,0.71,1.061c0.115,0.153,0.228,0.31,0.351,0.457c-0.04-0.135-0.069-0.271-0.105-0.409
		c-0.302-1.154-0.474-2.335-0.474-3.508c0-2.135,0.542-3.994,1.485-5.56c0.038-0.059,0.085-0.125,0.126-0.187
		c1.37,0.867,3.153,1.579,5.265,2.075c0.112,0.026,0.221,0.057,0.335,0.081c0.177,0.038,0.361-0.021,0.482-0.157
		c0.239-0.271,0.46-0.536,0.663-0.794c0.196-0.25,0.376-0.496,0.538-0.734l0.367,1.711c0.044,0.208,0.217,0.364,0.428,0.392
		c0.055,0.007,0.109,0.009,0.164,0.015c1.146,0.134,2.288,0.205,3.396,0.205c1.174,0,2.307-0.07,3.396-0.193
		c0.509-0.06,1.004-0.128,1.488-0.21c0.512-0.087,1.008-0.188,1.488-0.3c2.086-0.486,3.889-1.205,5.282-2.096
		c1.017,1.604,1.593,3.532,1.593,5.753c0,1.173-0.172,2.354-0.475,3.509c-0.035,0.137-0.064,0.272-0.104,0.408
		c0.123-0.147,0.235-0.303,0.352-0.457c0.258-0.344,0.498-0.694,0.709-1.061c0.392,0.001,0.752,0.133,1.06,0.351
		c0.399,0.284,0.698,0.722,0.849,1.24c0.063,0.227,0.106,0.463,0.106,0.713c0,0.389-0.091,0.748-0.238,1.068
		C39.467,35.096,38.805,35.601,38.025,35.601z M26.547,35.658c0,0.497-1.006,0.897-2.249,0.897c-1.242,0-2.249-0.4-2.249-0.897
		c0-0.498,1.007-0.9,2.249-0.9C25.541,34.758,26.547,35.159,26.547,35.658z M20.049,29.241c0.133,0.271,0.214,0.576,0.214,0.897
		c0,1.13-0.909,2.049-2.033,2.07c-0.014,0-0.027,0.004-0.042,0.004c-0.562,0-1.07-0.226-1.443-0.589
		c-0.388-0.377-0.631-0.903-0.631-1.485c0-0.017,0.005-0.032,0.005-0.05c0.019-0.76,0.449-1.413,1.075-1.759
		c0.297-0.164,0.632-0.266,0.995-0.266c0.237,0,0.46,0.049,0.672,0.122C19.382,28.368,19.808,28.748,20.049,29.241z M32.48,30.09
		c0,0.018,0.004,0.033,0.004,0.05c0,0.583-0.242,1.108-0.631,1.485c-0.373,0.363-0.883,0.589-1.443,0.589
		c-0.014,0-0.026-0.004-0.041-0.004c-1.125-0.021-2.032-0.939-2.032-2.07c0-0.323,0.08-0.626,0.213-0.897
		c0.24-0.493,0.666-0.873,1.188-1.054c0.211-0.072,0.437-0.122,0.672-0.122c0.361,0,0.697,0.103,0.994,0.266
		C32.029,28.677,32.461,29.33,32.48,30.09z"/>
</g>
<g>
</g>
<g>
</g>
<g>
</g>
<g>
</g>
<g>
</g>
<g>
</g>
<g>
</g>
<g>
</g>
<g>
</g>
<g>
</g>
<g>
</g>
<g>
</g>
<g>
</g>
<g>
</g>
<g>
</g>
</svg>
