<?xml version="1.0" encoding="iso-8859-1"?>
<!-- Generator: Adobe Illustrator 16.0.0, SVG Export Plug-In . SVG Version: 6.00 Build 0)  -->
<!DOCTYPE svg PUBLIC "-//W3C//DTD SVG 1.1//EN" "http://www.w3.org/Graphics/SVG/1.1/DTD/svg11.dtd">
<svg version="1.1" id="Capa_1" xmlns="http://www.w3.org/2000/svg" xmlns:xlink="http://www.w3.org/1999/xlink" x="0px" y="0px"
	 width="47.876px" height="47.876px" viewBox="0 0 47.876 47.876" style="enable-background:new 0 0 47.876 47.876;"
	 xml:space="preserve">
<g>
	<path d="M23.938,3.726c-1.646,0-3.237,0.213-4.769,0.575C19.432,1.887,21.453,0,23.938,0s4.505,1.887,4.769,4.301
		C27.173,3.938,25.583,3.726,23.938,3.726z M23.938,33.583c-1.299,0-2.353,0.421-2.353,0.94c0,0.521,1.054,0.939,2.353,0.939
		s2.353-0.42,2.353-0.939C26.291,34.003,25.236,33.583,23.938,33.583z M44.41,32.053c0,2.836-1.766,5.248-4.202,6.092
		c-3.122,5.916-9.345,9.731-16.24,9.731c-6.891,0-13.104-3.806-16.229-9.709c-2.474-0.819-4.272-3.252-4.272-6.114
		c0-1.9,0.797-3.603,2.052-4.777c-0.312-1.316-0.493-2.685-0.493-4.092C5.024,13.057,13.508,4.818,23.938,4.818
		s18.914,8.238,18.914,18.364c0,1.409-0.182,2.775-0.494,4.094C43.611,28.452,44.41,30.152,44.41,32.053z M40.41,32.053
		c0-1.33-0.938-2.41-2.105-2.412c-0.322,0.551-0.691,1.082-1.111,1.588c0.367-1.26,0.572-2.555,0.597-3.842
		c-2.437-0.023-5.771-1.517-8.786-4.158c-2.625-2.297-4.414-4.946-5.065-7.186c-0.651,2.239-2.44,4.888-5.065,7.186
		c-3.017,2.643-6.349,4.135-8.786,4.158c0.025,1.287,0.229,2.582,0.596,3.842c-0.419-0.506-0.789-1.037-1.111-1.588
		c-1.169,0.002-2.106,1.082-2.106,2.412c0,1.331,0.939,2.411,2.11,2.411c0.292,0,0.57-0.067,0.822-0.188
		c1.913,5.578,7.259,9.603,13.569,9.603c6.304,0,11.642-4.015,13.562-9.584c0.238,0.106,0.498,0.172,0.771,0.172
		C39.47,34.464,40.41,33.384,40.41,32.053z M17.543,26.604c-1.184,0-2.147,0.963-2.147,2.147s0.963,2.147,2.147,2.147
		s2.147-0.965,2.147-2.147C19.69,27.566,18.729,26.604,17.543,26.604z M30.331,26.604c-1.185,0-2.146,0.963-2.146,2.147
		s0.963,2.147,2.146,2.147s2.146-0.965,2.146-2.147C32.478,27.566,31.513,26.604,30.331,26.604z"/>
</g>
<g>
</g>
<g>
</g>
<g>
</g>
<g>
</g>
<g>
</g>
<g>
</g>
<g>
</g>
<g>
</g>
<g>
</g>
<g>
</g>
<g>
</g>
<g>
</g>
<g>
</g>
<g>
</g>
<g>
</g>
</svg>
