<?xml version="1.0" encoding="iso-8859-1"?>
<!-- Generator: Adobe Illustrator 16.0.0, SVG Export Plug-In . SVG Version: 6.00 Build 0)  -->
<!DOCTYPE svg PUBLIC "-//W3C//DTD SVG 1.1//EN" "http://www.w3.org/Graphics/SVG/1.1/DTD/svg11.dtd">
<svg version="1.1" id="Capa_1" xmlns="http://www.w3.org/2000/svg" xmlns:xlink="http://www.w3.org/1999/xlink" x="0px" y="0px"
	 width="47.354px" height="47.354px" viewBox="0 0 47.354 47.354" style="enable-background:new 0 0 47.354 47.354;"
	 xml:space="preserve">
<g>
	<path d="M47.343,22.05c-0.111-0.898-0.964-1.752-1.867-2.657c-0.65-0.652-1.323-1.326-1.473-1.823
		c-0.146-0.483,0.049-1.402,0.235-2.292c0.271-1.286,0.528-2.5,0.067-3.313s-1.635-1.214-2.878-1.641
		c-0.858-0.294-1.748-0.598-2.088-0.971c-0.343-0.374-0.564-1.286-0.782-2.168c-0.313-1.276-0.607-2.481-1.376-3.013
		C36.816,3.919,36.32,3.8,35.62,3.8c-0.548,0-1.155,0.072-1.744,0.143c-0.972,0.116-1.901,0.19-2.304,0.031
		c-0.469-0.188-1.065-0.913-1.645-1.614c-0.835-1.014-1.625-1.971-2.547-2.117c-0.9-0.149-2.017,0.551-3.077,1.228
		c-0.767,0.488-1.559,0.993-2.123,1.029c-0.514,0-1.331-0.378-2.121-0.742c-1.148-0.531-2.372-1.056-3.214-0.804
		c-0.895,0.27-1.548,1.324-2.24,2.441c-0.478,0.772-0.972,1.57-1.412,1.82c-0.439,0.25-1.378,0.265-2.287,0.278
		C9.596,5.516,8.355,5.536,7.665,6.166c-0.689,0.631-0.82,1.864-0.958,3.172c-0.096,0.902-0.195,1.837-0.482,2.252
		c-0.288,0.416-1.128,0.837-1.94,1.244C3.11,13.422,2,13.978,1.653,14.845c-0.358,0.894,0.085,2.169,0.513,3.402
		c0.283,0.813,0.574,1.654,0.539,2.152c-0.036,0.503-0.668,1.306-1.227,2.014c-0.79,1.004-1.536,1.951-1.475,2.861
		c0.063,0.932,0.947,1.804,1.882,2.728c0.646,0.638,1.315,1.298,1.46,1.781c0.146,0.483-0.049,1.402-0.236,2.292
		c-0.272,1.286-0.529,2.5-0.067,3.312c0.462,0.812,1.635,1.214,2.878,1.641C6.779,37.322,7.668,37.626,8.009,38
		s0.565,1.285,0.781,2.167c0.313,1.276,0.608,2.481,1.376,3.015c0.385,0.267,0.915,0.391,1.667,0.391
		c0.558,0,1.171-0.066,1.764-0.133c0.919-0.101,1.805-0.173,2.217-0.047c0.483,0.146,1.125,0.942,1.691,1.645
		c0.802,0.993,1.559,1.933,2.46,2.074c0.084,0.014,0.171,0.021,0.26,0.021c0.86,0,1.855-0.635,2.817-1.247
		c0.766-0.488,1.557-0.994,2.122-1.028c0.515,0,1.331,0.377,2.121,0.741c1.148,0.531,2.376,1.058,3.214,0.804
		c0.874-0.264,1.498-1.294,2.159-2.387c0.468-0.771,0.996-1.646,1.454-1.854c0.454-0.208,1.343-0.23,2.204-0.253
		c1.306-0.033,2.654-0.067,3.365-0.717c0.688-0.631,0.82-1.864,0.958-3.172c0.097-0.902,0.193-1.837,0.481-2.252
		c0.288-0.416,1.128-0.837,1.939-1.243c1.176-0.59,2.285-1.146,2.633-2.013c0.347-0.867-0.071-2.036-0.514-3.272
		c-0.307-0.854-0.622-1.74-0.543-2.239c0.078-0.487,0.65-1.22,1.206-1.928C46.639,24.053,47.462,23.005,47.343,22.05z
		 M23.709,42.747c-6.703,0-12.383-4.272-14.415-10.2c-0.269,0.129-0.563,0.2-0.874,0.2c-1.244,0-2.243-1.146-2.243-2.562
		c0-1.413,0.996-2.559,2.238-2.562c0.342,0.587,0.735,1.151,1.18,1.688c-0.416-1.428-0.644-2.896-0.644-4.354
		c0-0.5,0.027-0.987,0.079-1.461c8.726-1.186,16.271-7.065,16.271-7.065c1.664,3.493,8.525,5.546,12.935,6.53
		c0.099,0.643,0.167,1.303,0.167,1.998c0,1.457-0.229,2.927-0.645,4.354c0.444-0.536,0.838-1.101,1.181-1.688
		c1.242,0.003,2.237,1.147,2.237,2.562c0,1.415-0.998,2.563-2.242,2.563c-0.29,0-0.563-0.066-0.817-0.182
		C36.077,38.485,30.405,42.747,23.709,42.747z M23.677,33.81c-1.381,0-2.5-0.446-2.5-1c0-0.553,1.119-1,2.5-1
		c1.38,0,2.5,0.447,2.5,1C26.178,33.364,25.058,33.81,23.677,33.81z M31.513,32.109c-0.56,0.138-1.125,0.208-1.685,0.208
		c-2.485,0-4.331-1.354-4.791-2.723h-2.723c-0.459,1.367-2.305,2.723-4.79,2.723l0,0c-0.559,0-1.125-0.07-1.684-0.208
		c-3.907-0.966-5.149-4.424-5.261-6.117c-0.032-0.487,0.294-0.928,0.77-1.039c0.059-0.014,1.458-0.336,3.241-0.336
		c1.337,0,2.543,0.182,3.584,0.537c1.477,0.506,3.038,1.365,3.796,2.442h3.411c0.759-1.077,2.318-1.938,3.796-2.441
		c1.041-0.355,2.247-0.537,3.584-0.537c1.782,0,3.183,0.323,3.241,0.336c0.476,0.111,0.802,0.552,0.771,1.039
		C36.661,27.685,35.42,31.143,31.513,32.109z M26.809,35.944c0.074,0.084,0.118,0.173,0.118,0.264c0,0.551-1.455,0.996-3.25,0.996
		c-1.795,0-3.25-0.445-3.25-0.996c0-0.091,0.043-0.18,0.118-0.264c0.557-0.066,1.519,0.053,2.435,0.327
		c0.262,0.078,0.494,0.163,0.697,0.249c0.203-0.086,0.436-0.171,0.697-0.249C25.29,35.995,26.253,35.876,26.809,35.944z"/>
</g>
<g>
</g>
<g>
</g>
<g>
</g>
<g>
</g>
<g>
</g>
<g>
</g>
<g>
</g>
<g>
</g>
<g>
</g>
<g>
</g>
<g>
</g>
<g>
</g>
<g>
</g>
<g>
</g>
<g>
</g>
</svg>
