<?xml version="1.0" encoding="iso-8859-1"?>
<!-- Generator: Adobe Illustrator 16.0.0, SVG Export Plug-In . SVG Version: 6.00 Build 0)  -->
<!DOCTYPE svg PUBLIC "-//W3C//DTD SVG 1.1//EN" "http://www.w3.org/Graphics/SVG/1.1/DTD/svg11.dtd">
<svg version="1.1" id="Capa_1" xmlns="http://www.w3.org/2000/svg" xmlns:xlink="http://www.w3.org/1999/xlink" x="0px" y="0px"
	 width="45.155px" height="45.156px" viewBox="0 0 45.155 45.156" style="enable-background:new 0 0 45.155 45.156;"
	 xml:space="preserve">
<g>
	<path d="M24.034,30.318c0,0.553-1.119,1-2.5,1s-2.5-0.447-2.5-1s1.119-1,2.5-1S24.034,29.765,24.034,30.318z M41.494,35.966
		c-1.892,2.336-4.468,3.678-7.661,3.99c-0.017,0.002-0.032,0.002-0.049,0.002c-0.015,0-0.024-0.008-0.039-0.01
		c-3.356,2.721-7.628,4.307-12.181,4.307c-7.263,0-13.807-4.029-17.067-10.271c-2.578-0.808-4.463-3.322-4.463-6.291
		c0-1.216,0.325-2.351,0.875-3.326C-3.459,8.558,8.923,3.39,16.534,2.334c1.414-0.195,2.576,0,3.458,0.276
		c0.865-0.697,2.017-1.168,3.464-1.396C24.79,1.003,26.103,0.9,27.355,0.9c7.127,0,15.979,3.384,17.675,19.507
		C45.076,20.804,46.085,30.292,41.494,35.966z M35.974,30.074c0.254,0.115,0.527,0.182,0.817,0.182c1.244,0,2.242-1.146,2.242-2.562
		c0-1.412-0.996-2.559-2.236-2.563c-0.344,0.587-0.735,1.15-1.182,1.688c0.316-1.088,0.521-2.197,0.604-3.309
		c-0.957-2.108-4.825-9.974-9.271-9.974c-1.554,0-3.071,0.999-4.512,2.967c-0.096,0.133-0.242,0.21-0.415,0.205
		c-0.163-0.004-0.314-0.087-0.404-0.224c-0.127-0.191-2.022-3.081-2.963-6.318c-3.677,0.522-6.849,2.067-8.986,4.481
		c-0.496,0.596-0.9,1.154-1.203,1.627c-1.052,1.742-1.656,3.812-1.656,6.188c0,1.458,0.229,2.927,0.645,4.354
		c-0.445-0.535-0.838-1.1-1.181-1.688c-1.241,0.005-2.237,1.15-2.237,2.563c0,1.416,0.998,2.562,2.242,2.562
		c0.311,0,0.604-0.07,0.874-0.199c2.031,5.929,7.712,10.199,14.414,10.199C28.262,40.255,33.934,35.992,35.974,30.074z
		 M13.51,28.208c-2.744,0-4.977-2.215-4.977-4.938c0-2.724,2.231-4.938,4.977-4.938c4.396,0,7.465,2.03,7.465,4.938
		C20.974,26.125,16.064,28.208,13.51,28.208z M15.409,24.896c0.794,0,1.438-0.646,1.438-1.438c0-0.794-0.644-1.438-1.438-1.438
		s-1.438,0.645-1.438,1.438S14.615,24.896,15.409,24.896z M34.534,23.271c0,2.723-2.231,4.938-4.978,4.938
		c-2.556,0-7.465-2.084-7.465-4.938c0-2.907,3.07-4.938,7.465-4.938C32.302,18.333,34.534,20.55,34.534,23.271z M27.784,22.021
		c-0.794,0-1.438,0.645-1.438,1.438c0,0.795,0.645,1.439,1.438,1.439s1.438-0.646,1.438-1.439S28.577,22.021,27.784,22.021z"/>
</g>
<g>
</g>
<g>
</g>
<g>
</g>
<g>
</g>
<g>
</g>
<g>
</g>
<g>
</g>
<g>
</g>
<g>
</g>
<g>
</g>
<g>
</g>
<g>
</g>
<g>
</g>
<g>
</g>
<g>
</g>
</svg>
